<svg width="229" height="204" viewBox="0 0 229 204" fill="none" xmlns="http://www.w3.org/2000/svg">
<g clip-path="url(#clip0_1430_2154)">
<path d="M86.5672 137.85C134.074 174.017 185.822 185.95 202.15 164.502C218.479 143.054 193.204 96.3479 145.698 60.1808C98.1913 24.0136 46.4429 12.0812 30.1144 33.529C13.786 54.9769 39.0607 101.683 86.5672 137.85Z" fill="#D5E882"/>
<path d="M111.456 55.0891C111.603 54.8312 111.746 54.5826 111.884 54.3452C112.024 54.1058 112.175 53.8386 112.349 53.5421L113.277 51.9326C113.453 51.6253 113.612 51.3483 113.755 51.1031C113.899 50.8579 114.044 50.6039 114.192 50.344C114.385 50.4534 114.642 50.6027 114.964 50.7865C115.287 50.9738 115.66 51.1871 116.081 51.4271C116.464 51.6479 116.758 51.8776 116.959 52.1202C117.16 52.3628 117.262 52.6314 117.267 52.9222C117.271 53.215 117.167 53.5489 116.954 53.9172C116.773 54.2304 116.558 54.4733 116.31 54.6457C116.061 54.82 115.777 54.9032 115.455 54.8956C115.135 54.8895 114.767 54.7696 114.36 54.5366C114.256 54.476 114.141 54.4099 114.015 54.3385C113.892 54.2665 113.771 54.1995 113.654 54.132C113.537 54.0645 113.437 54.0069 113.354 53.9591L113.834 53.1277L114.589 53.5603C114.781 53.6697 114.952 53.735 115.103 53.7541C115.253 53.7733 115.389 53.7474 115.51 53.6729C115.63 53.6004 115.739 53.477 115.84 53.3041C115.918 53.1693 115.963 53.0461 115.97 52.9369C115.98 52.8273 115.963 52.7284 115.924 52.643C115.883 52.5562 115.827 52.4801 115.752 52.4138C115.679 52.3489 115.598 52.2903 115.513 52.241L114.253 51.5157L115.166 51.1285C115.017 51.3884 114.871 51.6409 114.729 51.8876C114.587 52.1343 114.428 52.4113 114.251 52.717L113.422 54.1556C113.25 54.4536 113.097 54.7193 112.958 54.9587C112.822 55.1975 112.678 55.4462 112.529 55.7026L111.457 55.0872L111.456 55.0891Z" fill="#F73E9F"/>
<path d="M115.988 57.7153C116.141 57.4618 116.287 57.2181 116.43 56.9817C116.573 56.7453 116.734 56.4786 116.909 56.1836L117.868 54.5908C118.049 54.288 118.215 54.0135 118.363 53.7712C118.509 53.5275 118.659 53.2779 118.815 53.0205L119.915 53.6791C119.761 53.9346 119.61 54.1842 119.463 54.4298C119.315 54.6721 119.149 54.9466 118.968 55.2494L118.009 56.8422C117.832 57.1358 117.675 57.402 117.532 57.6384C117.389 57.8748 117.241 58.1204 117.09 58.372L115.99 57.7133L115.988 57.7153Z" fill="#F73E9F"/>
<path d="M118.281 59.0883C118.437 58.8397 118.59 58.5984 118.738 58.363C118.885 58.1296 119.051 57.8673 119.233 57.5767L120.225 56.0037C120.414 55.7033 120.585 55.4352 120.734 55.1944C120.885 54.9517 121.041 54.7065 121.201 54.4521L122.127 55.0337C122.145 55.4851 122.16 55.9125 122.174 56.312C122.188 56.7115 122.203 57.1145 122.218 57.5174L122.279 59.0817L122.357 59.1285L123.163 57.8485C123.352 57.5481 123.522 57.28 123.672 57.0392C123.825 56.798 123.979 56.5513 124.139 56.2969L125.137 56.9243C124.979 57.1768 124.821 57.4239 124.672 57.6647C124.519 57.9059 124.35 58.1755 124.163 58.4739L123.17 60.047C122.989 60.3376 122.823 60.5999 122.674 60.8353C122.527 61.0687 122.374 61.31 122.217 61.5605L121.299 60.9848C121.287 60.6147 121.272 60.2274 121.256 59.823C121.239 59.4185 121.221 58.9794 121.2 58.5005L121.136 56.9191L121.062 56.8718L120.225 58.1997C120.041 58.4908 119.876 58.7511 119.729 58.988C119.582 59.2214 119.429 59.4627 119.272 59.7132L118.278 59.0888L118.281 59.0883Z" fill="#F73E9F"/>
<path d="M123.335 62.2883C123.5 62.0437 123.657 61.8054 123.811 61.5744C123.965 61.3434 124.136 61.0875 124.328 60.8024L125.361 59.2569C125.558 58.9624 125.734 58.6987 125.893 58.4619C126.05 58.2236 126.211 57.9829 126.379 57.7343L127.419 58.4275C127.254 58.6775 127.09 58.9202 126.933 59.1551C126.776 59.3934 126.6 59.6571 126.401 59.95L125.368 61.4955C125.178 61.7822 125.007 62.0381 124.853 62.269C124.699 62.5 124.54 62.7368 124.377 62.983L123.335 62.2883ZM125.942 64.0237C125.938 63.7275 125.933 63.4524 125.927 63.1914C125.924 62.93 125.918 62.6759 125.915 62.4233L125.892 61.1661L125.599 60.9711L126.15 60.1474L126.431 60.3335L127.433 59.9862C127.673 59.9039 127.909 59.824 128.144 59.7407C128.381 59.6588 128.652 59.5634 128.966 59.4535L130.168 60.255C129.809 60.3642 129.459 60.4741 129.118 60.581C128.776 60.6879 128.433 60.7967 128.085 60.908L126.772 61.3211L127.061 60.8444L127.119 62.4827C127.128 62.7363 127.137 63.0055 127.146 63.2959C127.156 63.5843 127.165 63.8658 127.175 64.1419C127.185 64.4146 127.194 64.656 127.206 64.8621L125.944 64.0218L125.942 64.0237Z" fill="#F73E9F"/>
<path d="M128.891 66.0276C129.141 65.8444 129.403 65.6491 129.679 65.4465C129.953 65.2444 130.213 65.051 130.461 64.8664L132.052 63.6936C132.338 63.4792 132.597 63.2878 132.829 63.1159C133.061 62.9439 133.291 62.774 133.525 62.6001L134.841 63.5376C134.748 63.8246 134.661 64.1038 134.573 64.3761C134.485 64.6485 134.393 64.9511 134.287 65.2836L133.688 67.1685C133.593 67.4732 133.493 67.7856 133.393 68.1069C133.292 68.4281 133.193 68.7317 133.101 69.0256L132.044 68.2736C132.148 67.9886 132.252 67.6982 132.359 67.3971C132.464 67.0979 132.568 66.8129 132.662 66.5449L133.586 63.9637L133.509 63.9115L131.376 65.5997C131.144 65.7839 130.902 65.9764 130.648 66.1776C130.394 66.3788 130.149 66.5717 129.912 66.7584L128.888 66.028L128.891 66.0276ZM130.625 65.8578L131.284 65.1656L133.262 66.5766L132.802 67.4071L130.628 65.8574L130.625 65.8578Z" fill="#F73E9F"/>
<path d="M134.613 70.1556C134.712 69.8852 134.814 69.5987 134.924 69.2937C135.033 68.9886 135.135 68.7055 135.227 68.445L135.83 66.7515C135.899 66.5603 135.972 66.3477 136.054 66.1198C136.135 65.892 136.22 65.6603 136.302 65.4271C136.385 65.1939 136.465 64.968 136.542 64.7549L137.656 65.5878C137.522 65.9207 137.378 66.2741 137.227 66.6495C137.073 67.0254 136.929 67.3788 136.794 67.7102L136.021 69.6018L136.093 69.6564L137.72 68.3877C138.006 68.1646 138.305 67.9327 138.617 67.6886C138.927 67.4465 139.229 67.2107 139.519 66.9817L140.605 67.7925C140.416 67.9269 140.224 68.0672 140.025 68.2118C139.826 68.3565 139.629 68.4992 139.438 68.6375C139.243 68.7763 139.063 68.9078 138.894 69.0344L137.429 70.0937C137.199 70.2583 136.958 70.4351 136.7 70.6211C136.44 70.8091 136.195 70.9898 135.959 71.1588L134.613 70.1521L134.613 70.1556Z" fill="#F73E9F"/>
<path d="M139.956 74.3804C139.573 74.076 139.284 73.7547 139.098 73.4123C138.911 73.0699 138.808 72.7229 138.79 72.3729C138.773 72.0208 138.824 71.6769 138.946 71.3386C139.068 71.0022 139.246 70.6842 139.479 70.3899C139.809 69.9721 140.19 69.6573 140.621 69.4489C141.052 69.2405 141.511 69.1644 141.993 69.223C142.475 69.2816 142.962 69.5037 143.452 69.8893C143.824 70.1815 144.102 70.4953 144.289 70.8289C144.475 71.1645 144.579 71.5061 144.603 71.8572C144.624 72.2068 144.578 72.5537 144.455 72.8954C144.333 73.2371 144.153 73.5625 143.907 73.8724C143.57 74.3 143.184 74.6172 142.749 74.8192C142.315 75.0227 141.859 75.0915 141.381 75.0305C140.904 74.9695 140.426 74.7532 139.952 74.3775L139.956 74.3804ZM140.587 73.5525C140.783 73.7085 140.986 73.8076 141.196 73.8466C141.401 73.886 141.608 73.8799 141.808 73.8259C142.01 73.7698 142.204 73.6766 142.386 73.5466C142.569 73.4146 142.734 73.2536 142.884 73.0652C143.041 72.8671 143.162 72.66 143.243 72.4478C143.327 72.2337 143.369 72.0219 143.367 71.8143C143.368 71.6082 143.324 71.4083 143.234 71.222C143.146 71.0351 143.005 70.8662 142.82 70.7191C142.627 70.5662 142.426 70.4685 142.216 70.4261C142.007 70.3837 141.804 70.3893 141.599 70.4404C141.395 70.495 141.201 70.5848 141.014 70.7138C140.826 70.8448 140.659 71.0043 140.509 71.1961C140.358 71.3865 140.242 71.5877 140.156 71.7969C140.07 72.0061 140.028 72.2145 140.024 72.4245C140.019 72.633 140.061 72.8349 140.149 73.0286C140.238 73.2223 140.383 73.3976 140.582 73.555L140.587 73.5525Z" fill="#F73E9F"/>
<path d="M145.05 78.5169C144.711 78.2342 144.448 77.9287 144.263 77.5966C144.078 77.2645 143.97 76.9233 143.939 76.5698C143.908 76.2162 143.952 75.8644 144.073 75.5124C144.194 75.1604 144.388 74.8209 144.658 74.4988C145.009 74.0781 145.407 73.7732 145.854 73.58C146.299 73.3888 146.759 73.3318 147.235 73.4104C147.711 73.4891 148.171 73.7096 148.616 74.0789C148.751 74.1911 148.877 74.3115 148.994 74.4382C149.112 74.5649 149.218 74.6951 149.316 74.8247C149.413 74.9543 149.496 75.0824 149.569 75.2084C149.641 75.3345 149.7 75.4537 149.748 75.564L148.923 76.4069C148.851 76.1829 148.769 75.9848 148.676 75.8092C148.585 75.6351 148.484 75.478 148.376 75.3464C148.268 75.2114 148.155 75.0945 148.039 74.9971C147.802 74.7979 147.545 74.6731 147.272 74.6256C146.999 74.5781 146.724 74.6093 146.449 74.7243C146.173 74.8379 145.912 75.0435 145.67 75.3373C145.513 75.5232 145.394 75.7249 145.312 75.9371C145.226 76.1497 145.188 76.3645 145.193 76.5838C145.197 76.8031 145.25 77.0192 145.358 77.2311C145.465 77.4415 145.629 77.6404 145.852 77.8258C145.944 77.902 146.04 77.9724 146.145 78.0364C146.247 78.0989 146.358 78.1586 146.473 78.209C146.591 78.2588 146.717 78.299 146.85 78.3293C146.983 78.3597 147.125 78.3783 147.278 78.3867L146.588 79.3241C146.465 79.3011 146.338 79.2663 146.208 79.2164C146.078 79.1665 145.946 79.1063 145.815 79.0372C145.683 78.9648 145.554 78.885 145.427 78.7979C145.301 78.7107 145.179 78.6178 145.061 78.5189L145.05 78.5169Z" fill="#F73E9F"/>
<path d="M147.11 80.1072C147.377 79.9496 147.657 79.7832 147.949 79.6081C148.242 79.4329 148.52 79.2651 148.783 79.108L150.482 78.1C150.789 77.9176 151.063 77.7502 151.311 77.6058C151.558 77.4579 151.806 77.31 152.055 77.1601L153.27 78.227C153.151 78.5036 153.033 78.7714 152.921 79.0349C152.809 79.2983 152.683 79.5881 152.547 79.9127L151.762 81.7274C151.637 82.0206 151.509 82.3212 151.375 82.6296C151.244 82.9395 151.115 83.2332 150.992 83.5157L150.017 82.6598C150.149 82.3866 150.283 82.1061 150.421 81.8198C150.557 81.532 150.685 81.2593 150.808 81.0013L151.985 78.5227L151.916 78.4608L149.629 79.9277C149.38 80.0898 149.119 80.2552 148.848 80.4309C148.574 80.6052 148.311 80.7745 148.058 80.9371L147.114 80.1067L147.11 80.1072ZM148.851 80.1093L149.573 79.4869L151.399 81.0901L150.857 81.8709L148.851 80.1093Z" fill="#F73E9F"/>
<path d="M151.7 84.157C151.9 83.9423 152.092 83.7306 152.283 83.5277C152.471 83.3252 152.678 83.0974 152.913 82.8447L154.174 81.4787C154.413 81.2201 154.63 80.984 154.822 80.7757C155.015 80.5674 155.213 80.3513 155.416 80.1327C155.573 80.2767 155.738 80.4301 155.91 80.5894C156.083 80.7486 156.264 80.9138 156.445 81.0858C156.628 81.2559 156.816 81.4269 157.003 81.6034C157.307 81.884 157.536 82.1786 157.692 82.4886C157.846 82.7971 157.926 83.1107 157.932 83.4328C157.937 83.755 157.867 84.0807 157.725 84.4077C157.584 84.7347 157.364 85.055 157.07 85.3735C156.807 85.658 156.525 85.8875 156.222 86.064C155.921 86.2387 155.602 86.3442 155.266 86.3752C154.932 86.4078 154.581 86.3501 154.214 86.2004C153.848 86.0542 153.471 85.8011 153.081 85.4398C152.901 85.2747 152.734 85.1199 152.575 84.9744C152.42 84.8284 152.269 84.6888 152.124 84.557C151.979 84.4253 151.838 84.2931 151.697 84.1609L151.7 84.157ZM153.305 84.2687L153.766 84.6934C154.054 84.9589 154.334 85.1136 154.607 85.1577C154.879 85.2018 155.144 85.1597 155.399 85.0334C155.655 84.9071 155.897 84.7215 156.124 84.4751C156.297 84.2888 156.432 84.0989 156.527 83.9058C156.626 83.7124 156.678 83.5182 156.688 83.3249C156.701 83.1311 156.663 82.939 156.576 82.7522C156.49 82.5634 156.352 82.3783 156.158 82.1994L155.651 81.7305C155.535 81.8549 155.416 81.9832 155.299 82.113C155.179 82.2413 155.044 82.3876 154.894 82.5515L154.04 83.477C153.895 83.635 153.763 83.7755 153.649 83.9014C153.531 84.0278 153.419 84.1517 153.307 84.2702L153.305 84.2687Z" fill="#F73E9F"/>
<path d="M157.838 90.1165C157.488 89.7725 157.239 89.4196 157.09 89.0597C156.942 88.6998 156.877 88.3422 156.899 87.9918C156.919 87.6399 157.007 87.3029 157.167 86.9804C157.323 86.6584 157.533 86.362 157.798 86.0948C158.173 85.7143 158.584 85.4442 159.035 85.2819C159.487 85.1196 159.949 85.0954 160.424 85.2073C160.898 85.3177 161.356 85.5926 161.801 86.03C162.139 86.3617 162.381 86.7033 162.529 87.0563C162.679 87.4108 162.744 87.7631 162.729 88.1125C162.715 88.4654 162.629 88.8039 162.473 89.1293C162.317 89.4548 162.099 89.7609 161.822 90.0438C161.441 90.432 161.024 90.7066 160.571 90.8586C160.119 91.014 159.658 91.0328 159.189 90.92C158.721 90.8071 158.271 90.5381 157.842 90.116L157.838 90.1165ZM158.553 89.3589C158.731 89.5348 158.923 89.6564 159.124 89.7194C159.326 89.7838 159.528 89.7992 159.736 89.7633C159.945 89.7308 160.146 89.6591 160.341 89.5482C160.536 89.4373 160.719 89.2965 160.888 89.1229C161.065 88.9429 161.207 88.7486 161.311 88.5473C161.417 88.344 161.481 88.1397 161.504 87.9322C161.527 87.7247 161.506 87.5234 161.438 87.3269C161.37 87.1303 161.251 86.9497 161.08 86.7797C160.905 86.6067 160.715 86.4866 160.513 86.4222C160.311 86.3578 160.108 86.3389 159.899 86.3714C159.69 86.4005 159.485 86.4726 159.287 86.5806C159.088 86.6885 158.903 86.8313 158.732 87.0034C158.563 87.1771 158.424 87.364 158.318 87.5639C158.212 87.7637 158.146 87.9666 158.116 88.175C158.089 88.383 158.108 88.5882 158.178 88.7896C158.245 88.9916 158.371 89.18 158.549 89.3594L158.553 89.3589Z" fill="#F73E9F"/>
<path d="M79.6229 35.5451C79.4423 35.8024 79.2548 36.0729 79.0587 36.3585C78.8627 36.6442 78.6766 36.9127 78.4975 37.1681L77.3577 38.814C77.1543 39.1094 76.9697 39.376 76.804 39.6138C76.6383 39.8516 76.4711 40.0913 76.3043 40.3345L75.4249 40.106C75.4012 39.8073 75.3769 39.5174 75.3531 39.2309C75.3292 38.9445 75.3043 38.6232 75.2749 38.2677L75.1119 36.2776C75.0855 35.9584 75.0616 35.6317 75.0329 35.2953C75.0042 34.9589 74.9793 34.6377 74.9543 34.3287L75.6496 34.5095C75.6729 34.8449 75.696 35.1926 75.7206 35.5505C75.7451 35.9084 75.7699 36.2419 75.7905 36.5568L76.0032 39.6118L76.0646 39.6277L77.7741 37.1047C77.9612 36.8307 78.1553 36.5436 78.3564 36.2433C78.5575 35.943 78.7565 35.6534 78.9495 35.3717L79.6268 35.548L79.6229 35.5451ZM78.2923 36.6171L78.0929 37.1284L75.4249 36.4296L75.5176 35.8895L78.2904 36.6156L78.2923 36.6171Z" fill="#F73E9F"/>
<path d="M70.6853 33.4247C70.6288 33.7241 70.5725 34.0112 70.5163 34.2861C70.4621 34.5625 70.4027 34.8658 70.3381 35.196L70.0044 36.8973C69.9387 37.2329 69.8783 37.5416 69.8245 37.8214C69.7688 38.0997 69.7129 38.3903 69.6535 38.6936L69.4821 38.1344L70.117 38.2538C70.4193 38.3112 70.686 38.3631 70.922 38.4071C71.156 38.4496 71.3779 38.492 71.589 38.5325L71.4702 39.1391L67.1252 38.314L67.2441 37.7075C67.4532 37.7464 67.677 37.7903 67.9077 37.8333C68.1403 37.8778 68.4104 37.9292 68.7161 37.9861L69.3495 38.1075L68.9753 38.5628C69.0332 38.2615 69.0925 37.9704 69.1463 37.6906C69.2001 37.4108 69.2605 37.1021 69.3261 36.7665L69.6599 35.0652C69.7244 34.735 69.7839 34.4317 69.8381 34.1553C69.8923 33.8789 69.9487 33.5918 70.007 33.2939L70.6867 33.4227L70.6853 33.4247Z" fill="#F73E9F"/>
<path d="M64.5914 32.3826C65.0487 32.4377 65.4416 32.561 65.7665 32.7497C66.0913 32.9385 66.3531 33.1778 66.5479 33.465C66.7462 33.7516 66.8771 34.0703 66.9496 34.4215C67.0221 34.7728 67.0334 35.1361 66.9869 35.5109C66.9207 36.0403 66.7531 36.5018 66.4879 36.8983C66.2213 37.2968 65.8683 37.5956 65.4343 37.7956C64.9988 37.9976 64.491 38.0613 63.9117 37.9936C63.4725 37.943 63.0922 37.8231 62.7713 37.6373C62.4522 37.453 62.1928 37.2185 61.9951 36.9353C61.7973 36.6521 61.6609 36.3324 61.5885 35.9812C61.514 35.6284 61.5019 35.2583 61.5514 34.8673C61.6187 34.3325 61.7839 33.8661 62.051 33.4711C62.3161 33.0746 62.6657 32.7763 63.0987 32.5816C63.5312 32.3835 64.0303 32.3193 64.5938 32.3875L64.5914 32.3826ZM64.5358 32.9786C64.1903 32.9377 63.8847 32.961 63.6194 33.0521C63.3541 33.1431 63.1249 33.2832 62.9368 33.47C62.7472 33.6588 62.5968 33.8804 62.4841 34.137C62.3714 34.3936 62.2972 34.664 62.2615 34.9483C62.222 35.2576 62.2311 35.5513 62.2799 35.8291C62.3288 36.1068 62.4263 36.3569 62.5705 36.5777C62.7132 36.8005 62.9009 36.9803 63.1344 37.1242C63.3678 37.268 63.6483 37.3581 63.9777 37.3961C64.3178 37.436 64.6181 37.4117 64.8872 37.3236C65.1544 37.2341 65.3821 37.0959 65.5756 36.9101C65.7691 36.7243 65.923 36.5021 66.041 36.2466C66.159 35.991 66.2347 35.7186 66.271 35.4255C66.3074 35.1324 66.3031 34.8484 66.2547 34.5741C66.2063 34.2998 66.1142 34.0508 65.9744 33.8241C65.8347 33.5974 65.6476 33.4087 65.4083 33.2605C65.1705 33.1103 64.8808 33.0162 64.5353 32.9752L64.5358 32.9786Z" fill="#F73E9F"/>
<path d="M60.1705 32.0399C60.1633 32.3429 60.1548 32.6356 60.1465 32.916C60.1401 33.198 60.1319 33.5064 60.1239 33.8426L60.0776 35.6733C60.069 36.0184 60.0598 36.3322 60.0538 36.6176C60.0459 36.9015 60.0394 37.1957 60.0322 37.4987L59.4099 37.4875C59.0939 37.0218 58.7923 36.5732 58.5018 36.1423C58.2128 35.7094 57.9246 35.2834 57.6428 34.8653L56.5024 33.1736L56.4447 33.1729L56.3836 35.6061C56.3751 35.9512 56.3659 36.265 56.3599 36.5504C56.354 36.8357 56.3459 37.1319 56.3368 37.4334L55.6794 37.4202C55.688 37.1152 55.6945 36.821 55.7024 36.5371C55.7103 36.2532 55.7176 35.938 55.7262 35.5929L55.7706 33.7607C55.78 33.4225 55.7867 33.1161 55.7946 32.8322C55.801 32.5502 55.808 32.2594 55.8152 31.9565L56.4307 31.9685C56.6909 32.3548 56.9645 32.7636 57.2531 33.193C57.5397 33.621 57.8562 34.0902 58.2011 34.6025L59.3467 36.3075L59.399 36.3072L59.4611 33.8284C59.469 33.4921 59.4772 33.1838 59.4836 32.9018C59.492 32.6213 59.4985 32.3271 59.5057 32.0241L60.1632 32.0374L60.1705 32.0399Z" fill="#F73E9F"/>
<path d="M49.6016 32.4996C50.0568 32.4205 50.4672 32.4245 50.8361 32.5111C51.2016 32.5981 51.52 32.751 51.7913 32.9699C52.0626 33.1888 52.2825 33.4549 52.4512 33.7684C52.6198 34.0818 52.7368 34.4269 52.7964 34.7992C52.8846 35.3228 52.8569 35.8137 52.7148 36.2699C52.5726 36.7261 52.3203 37.1139 51.9593 37.4312C51.5983 37.7485 51.1304 37.9568 50.5543 38.0579C50.1162 38.1346 49.718 38.1307 49.3598 38.0461C48.9997 37.9601 48.6837 37.812 48.4148 37.5981C48.144 37.3826 47.9225 37.1184 47.75 36.802C47.5775 36.4856 47.4596 36.1337 47.3948 35.7482C47.3057 35.2177 47.3329 34.7233 47.4736 34.2691C47.6142 33.8148 47.8631 33.4276 48.2231 33.1156C48.5831 32.8037 49.0426 32.5983 49.6035 32.501L49.6016 32.4996ZM49.719 33.0855C49.3729 33.1459 49.0859 33.2574 48.8579 33.42C48.6285 33.5846 48.4505 33.7822 48.3229 34.0182C48.1954 34.2542 48.1155 34.5079 48.0822 34.7849C48.049 35.0619 48.0528 35.3424 48.1026 35.627C48.1535 35.9341 48.2444 36.213 48.3732 36.4622C48.5019 36.7113 48.6658 36.9225 48.8662 37.0936C49.0667 37.2647 49.3004 37.384 49.564 37.4521C49.8296 37.5216 50.1251 37.5276 50.4526 37.4716C50.7883 37.4126 51.0739 37.303 51.3037 37.1419C51.5351 36.9787 51.7165 36.7807 51.848 36.5477C51.9809 36.3127 52.0643 36.0584 52.1024 35.7791C52.141 35.5031 52.1367 35.2192 52.088 34.9292C52.0388 34.6358 51.9528 34.3667 51.8279 34.1205C51.703 33.8742 51.5425 33.6626 51.3446 33.4842C51.1452 33.3077 50.9091 33.1835 50.6392 33.1076C50.3679 33.0336 50.0616 33.0256 49.719 33.0855Z" fill="#F73E9F"/>
<path d="M44.8721 33.7691C44.9942 34.0471 45.1096 34.3138 45.2221 34.5722C45.3347 34.8306 45.4553 35.1106 45.5903 35.42L46.3186 37.094C46.4559 37.4083 46.5828 37.6962 46.6939 37.9565C46.8069 38.2184 46.9242 38.4866 47.0463 38.7646L43.9979 40.1141L43.7604 39.5693C43.9941 39.4635 44.2464 39.3533 44.5134 39.2358C44.7805 39.1184 45.0951 38.9786 45.4594 38.8179L46.4564 38.3771L46.3857 38.9526C46.2632 38.6711 46.1439 38.4014 46.0328 38.1411C45.9198 37.8792 45.7949 37.5929 45.658 37.282L44.9678 35.6987C44.8329 35.3893 44.7103 35.1078 44.5977 34.8494C44.4871 34.5925 44.3698 34.3243 44.2496 34.0477L44.874 33.7705L44.8721 33.7691ZM45.3723 36.2132L45.6026 36.7433L44.6797 37.151C44.3567 37.2937 44.0799 37.4161 43.8462 37.5219C43.6121 37.6243 43.3882 37.7253 43.1688 37.8204L42.9404 37.2919C43.1726 37.188 43.4033 37.086 43.6355 36.9821C43.8677 36.8783 44.1431 36.7579 44.4577 36.6181L45.3723 36.2132Z" fill="#F73E9F"/>
<path d="M37.3767 38.8639C37.5188 38.6852 37.6784 38.5199 37.8569 38.3658C38.0335 38.2103 38.2093 38.0759 38.3791 37.9615C38.5489 37.8471 38.6983 37.7634 38.8235 37.7076L39.292 38.1661C39.1119 38.2418 38.9351 38.3292 38.7655 38.4314C38.5958 38.5336 38.4363 38.6466 38.284 38.7742C38.1351 38.9015 37.9953 39.0449 37.868 39.204C37.7259 39.3826 37.6224 39.5629 37.5574 39.7447C37.4905 39.9251 37.4789 40.1013 37.5186 40.2703C37.5598 40.4374 37.6637 40.5905 37.8371 40.7288C37.9873 40.8493 38.1484 40.9071 38.3146 40.898C38.4809 40.8888 38.6671 40.8332 38.8695 40.7282C39.07 40.6218 39.2992 40.4816 39.557 40.3078C39.8597 40.1034 40.1369 39.9443 40.3907 39.8322C40.6445 39.7201 40.8839 39.671 41.111 39.6866C41.338 39.7021 41.5636 39.7999 41.7918 39.9829C42.0122 40.1599 42.1673 40.3705 42.2585 40.6127C42.3502 40.8583 42.3611 41.1256 42.296 41.4122C42.2294 41.7008 42.0733 41.9984 41.8281 42.3083C41.7247 42.4362 41.6164 42.5542 41.497 42.6669C41.379 42.7775 41.2597 42.8779 41.1371 42.9666C41.0145 43.0552 40.8974 43.1326 40.7839 43.1973C40.6718 43.26 40.5687 43.311 40.4755 43.345L40.006 42.8796C40.185 42.8215 40.3567 42.7487 40.519 42.6563C40.6812 42.5639 40.8298 42.4612 40.9649 42.3481C41.0985 42.237 41.2106 42.1219 41.3037 42.0077C41.4324 41.8466 41.5285 41.6762 41.5895 41.5036C41.6504 41.331 41.663 41.1617 41.633 41C41.6029 40.8383 41.5072 40.6945 41.3532 40.5711C41.2185 40.4624 41.0789 40.4085 40.9338 40.406C40.7872 40.4055 40.6206 40.4514 40.429 40.5461C40.2375 40.6408 40.0094 40.7756 39.7436 40.9557C39.3608 41.2132 39.0363 41.398 38.7699 41.5067C38.5034 41.6154 38.2626 41.6541 38.0524 41.6205C37.8407 41.5889 37.6302 41.4873 37.4199 41.321C37.1879 41.1351 37.0212 40.9156 36.9203 40.6661C36.8193 40.4165 36.8022 40.1413 36.8704 39.8386C36.9367 39.5343 37.1087 39.2119 37.384 38.8663L37.3767 38.8639Z" fill="#F73E9F"/>
<path d="M35.2716 42.7544C35.5659 42.8304 35.8471 42.8995 36.1195 42.9681C36.3899 43.0352 36.6896 43.1122 37.016 43.1942L38.7892 43.6404C39.1176 43.7239 39.4207 43.8004 39.6965 43.8685C39.9743 43.9381 40.2593 44.0102 40.5532 44.0827L39.7071 47.3742L39.1336 47.2305C39.1968 46.9826 39.2646 46.7165 39.339 46.4338C39.4133 46.1512 39.498 45.8147 39.5988 45.4288L39.9072 44.2233L40.2895 44.7147C39.9937 44.6407 39.7086 44.5686 39.4328 44.5005C39.1566 44.429 38.8554 44.3539 38.5255 44.2724L36.9507 43.8754C36.6261 43.7949 36.3284 43.7193 36.056 43.6507C35.7836 43.5822 35.4986 43.5101 35.2047 43.4375L35.764 43.2218L35.4495 44.4474C35.3669 44.7731 35.2869 45.0793 35.2135 45.3688C35.1381 45.6569 35.0682 45.9337 35.0004 46.1997L34.4269 46.0561L35.2735 42.7559L35.2716 42.7544ZM37.536 43.8707L38.0954 44.0128L37.8318 45.0428C37.7442 45.3832 37.6682 45.6801 37.605 45.928C37.5418 46.176 37.4791 46.4151 37.4205 46.645L36.8611 46.5029C36.9233 46.2603 36.9851 46.0143 37.0487 45.7698C37.1139 45.5233 37.1873 45.2338 37.2739 44.8987L37.538 43.8722L37.536 43.8707Z" fill="#F73E9F"/>
<path d="M34.2524 48.1282C34.5539 48.1264 34.8485 48.1255 35.1275 48.1251C35.408 48.1227 35.7167 48.1234 36.0529 48.1202L37.8798 48.1139C38.2247 48.1112 38.5404 48.111 38.8228 48.1101C39.1086 48.1087 39.4032 48.1078 39.7047 48.106L39.7022 48.8012C39.3988 48.8015 39.1042 48.8023 38.8203 48.8052C38.5379 48.8061 38.2222 48.8064 37.8773 48.809L36.1569 48.8162C35.8188 48.8179 35.512 48.8187 35.2295 48.8196C34.9506 48.82 34.6579 48.8224 34.3545 48.8227L34.8639 48.5598L34.862 49.5638C34.8604 49.8556 34.8611 50.1121 34.8592 50.3358C34.8607 50.559 34.8585 50.7671 34.859 50.9556C34.8579 51.146 34.8573 51.3398 34.8576 51.5405L34.2425 51.5441L34.2529 48.1316L34.2524 48.1282Z" fill="#F73E9F"/>
<path d="M34.4362 53.2931C34.7367 53.2442 35.025 53.1954 35.3015 53.1499C35.578 53.1045 35.8834 53.0532 36.2148 53.0001L38.0208 52.7034C38.3604 52.6474 38.6712 52.5972 38.9527 52.5493C39.2346 52.5048 39.5229 52.4559 39.8234 52.4071L40.3385 55.6924L39.7497 55.79C39.7114 55.5388 39.6688 55.2689 39.6235 54.9784C39.5768 54.6899 39.5232 54.35 39.4614 53.9605L39.2935 52.8859L39.8307 53.0974C39.5267 53.1467 39.2365 53.1941 38.9566 53.24C38.6751 53.2879 38.3678 53.3377 38.0281 53.3937L36.321 53.6731C35.9881 53.7282 35.6827 53.7794 35.4062 53.8249C35.1297 53.8704 34.8394 53.9177 34.5409 53.968L34.4347 53.295L34.4362 53.2931ZM36.9257 53.4057L37.4959 53.3124L37.6515 54.3067C37.7059 54.6535 37.756 54.9538 37.7928 55.207C37.8312 55.4583 37.8702 55.7007 37.9082 55.9364L37.338 56.0297C37.2982 55.7804 37.2583 55.531 37.2199 55.2798C37.1801 55.0304 37.1339 54.7331 37.0804 54.3932L36.9242 53.4076L36.9257 53.4057Z" fill="#F73E9F"/>
<path d="M37.4789 57.3612L38.0263 57.2135C38.0793 57.4173 38.129 57.6094 38.1783 57.7981C38.2276 57.9867 38.2712 58.1587 38.312 58.3224C38.3562 58.4856 38.4003 58.661 38.4476 58.8482C38.4969 59.0368 38.5466 59.2289 38.5992 59.4293L38.05 59.5756C37.9993 59.3766 37.9476 59.1831 37.8984 58.9944C37.851 58.8072 37.805 58.6304 37.7628 58.4686C37.7205 58.3069 37.6764 58.1315 37.6276 57.9463C37.5802 57.7591 37.5286 57.5655 37.4775 57.3632L37.4789 57.3612Z" fill="#F73E9F"/>
<path d="M37.0997 64.2582C36.9574 63.8538 36.8937 63.4629 36.9123 63.0884C36.9295 62.716 37.0181 62.3702 37.1773 62.0565C37.3365 61.7428 37.5583 61.4676 37.8374 61.2297C38.1165 60.9919 38.4492 60.8042 38.8323 60.6671C39.3517 60.4795 39.8501 60.4241 40.3233 60.4945C40.7999 60.5643 41.2167 60.7489 41.577 61.0479C41.9358 61.3489 42.2047 61.7479 42.3815 62.2557C42.4422 62.4253 42.4873 62.5953 42.5202 62.7653C42.5531 62.9353 42.5729 63.0984 42.5834 63.2576C42.5939 63.4167 42.5962 63.5665 42.5903 63.707C42.5859 63.8455 42.5743 63.9693 42.5537 64.0769L41.906 64.2439C41.9509 64.0159 41.9766 63.8011 41.9817 63.6014C41.9868 63.4017 41.9771 63.2093 41.9497 63.028C41.9223 62.8468 41.8787 62.6748 41.8228 62.515C41.6919 62.1439 41.4937 61.8451 41.223 61.6174C40.9524 61.3897 40.6338 61.249 40.2641 61.1957C39.8962 61.1439 39.4946 61.1929 39.0649 61.3469C38.7785 61.4496 38.5249 61.5897 38.3022 61.7655C38.0795 61.9414 37.9009 62.1478 37.7684 62.3862C37.6344 62.6266 37.5593 62.8902 37.5382 63.1794C37.5155 63.4706 37.5635 63.7816 37.6811 64.1179C37.7252 64.2409 37.7743 64.3615 37.8331 64.4773C37.892 64.593 37.9592 64.7059 38.0347 64.8158C38.1098 64.9223 38.1967 65.0255 38.2948 65.1218C38.393 65.2181 38.499 65.3081 38.6168 65.3947L38.0145 65.6671C37.9136 65.5903 37.8194 65.4969 37.7272 65.3928C37.6349 65.2887 37.5536 65.1743 37.4748 65.0526C37.3959 64.9309 37.3284 64.8024 37.2634 64.6666C37.2003 64.5322 37.1456 64.3949 37.0958 64.2552L37.0997 64.2582Z" fill="#F73E9F"/>
<path d="M38.2164 67.0275C38.5289 67.0032 38.8555 66.9804 39.1988 66.9518C39.542 66.9233 39.8667 66.899 40.1777 66.8767L42.1644 66.7206C42.5199 66.6921 42.8427 66.6664 43.1312 66.6454C43.4197 66.6245 43.7081 66.6036 44.0015 66.5802L44.3709 67.4103C44.1556 67.6166 43.9434 67.819 43.7361 68.0189C43.5287 68.2188 43.2933 68.4436 43.0347 68.6909L41.5908 70.0806C41.3602 70.303 41.1199 70.5302 40.877 70.7648C40.6341 70.9993 40.3987 71.2241 40.176 71.4401L39.8855 70.7841C40.1322 70.5525 40.3869 70.3145 40.6475 70.0688C40.908 69.823 41.1567 69.5929 41.3882 69.3774L43.6277 67.2764L43.6024 67.217L40.5787 67.4842C40.2496 67.5143 39.9063 67.5429 39.5463 67.5773C39.1878 67.6097 38.8397 67.6407 38.5032 67.6684L38.2183 67.0289L38.2164 67.0275ZM39.8782 67.3827L40.3984 67.2143L41.5173 69.7347L41.04 70.0037L39.8762 67.3812L39.8782 67.3827Z" fill="#F73E9F"/>
<path d="M40.8101 72.703C41.0789 72.5591 41.3383 72.4235 41.5879 72.2928C41.8356 72.1605 42.1097 72.0176 42.408 71.8592L44.0338 71.0027C44.3355 70.8438 44.6126 70.6969 44.8652 70.5623C45.1177 70.4276 45.3786 70.2901 45.6493 70.1477C45.7169 70.2762 45.7939 70.4243 45.8806 70.5921C45.9672 70.7598 46.063 70.9437 46.1679 71.1439C46.2727 71.344 46.3809 71.5559 46.4992 71.7786C46.6907 72.1464 46.8074 72.4758 46.8493 72.7668C46.8896 73.0597 46.8449 73.3155 46.7174 73.5393C46.59 73.763 46.368 73.958 46.0536 74.1257C45.7878 74.2657 45.5187 74.3415 45.2469 74.3567C44.9746 74.3684 44.7082 74.292 44.4521 74.1216C44.1944 73.9532 43.9576 73.665 43.7435 73.2584L44.1114 73.3102L43.5546 74.5765C43.4689 74.7734 43.3797 74.9831 43.2816 75.2045C43.1835 75.4259 43.0864 75.6419 42.9938 75.8521C42.9012 76.0622 42.8161 76.2504 42.7455 76.4156L42.3715 75.696C42.4897 75.4282 42.6073 75.1692 42.7213 74.9229C42.8348 74.6732 42.944 74.4293 43.0486 74.1913L43.7178 72.733L43.6105 73.2682L43.0336 72.1596L43.5392 71.8938L44.016 72.812C44.163 73.0935 44.317 73.3095 44.4777 73.4565C44.6388 73.6069 44.8168 73.6868 45.0086 73.7003C45.2005 73.7137 45.418 73.6573 45.6608 73.5275C45.8612 73.421 46.0047 73.305 46.0876 73.18C46.1686 73.0535 46.2124 72.9235 46.2105 72.7894C46.2085 72.6552 46.1859 72.5239 46.1389 72.3926C46.0905 72.2631 46.0376 72.1396 45.9777 72.0292L45.237 70.6048L45.8706 70.7942C45.5935 70.941 45.3277 71.081 45.0766 71.2137C44.8255 71.3464 44.5533 71.4908 44.2546 71.6458L42.7172 72.4585C42.419 72.617 42.1448 72.7599 41.8952 72.8907C41.6476 73.0229 41.3882 73.1585 41.1174 73.3009L40.8048 72.702L40.8101 72.703Z" fill="#F73E9F"/>
<path d="M43.4337 77.6146C43.6958 77.4594 43.9466 77.311 44.1894 77.169C44.4304 77.0255 44.6973 76.8679 44.9884 76.6947L46.5706 75.7588C46.8636 75.5871 47.1336 75.4256 47.3814 75.2811C47.6287 75.1332 47.8829 74.9844 48.1449 74.8292L49.8503 77.7498L49.3389 78.0514C49.2089 77.8321 49.0731 77.5961 48.9248 77.3444C48.7765 77.0927 48.6048 76.7954 48.4042 76.4515L47.7819 75.3825L48.4011 75.4621C48.1356 75.6178 47.8818 75.7701 47.6355 75.9126C47.3892 76.0551 47.1193 76.2166 46.8282 76.3898L45.4206 77.2211C45.1325 77.3904 44.8674 77.5495 44.6231 77.6935C44.3787 77.8374 44.1265 77.9878 43.8625 78.1415L44.1131 77.5951L44.7484 78.6833C44.9168 78.9688 45.0766 79.2416 45.2239 79.4987C45.3746 79.7553 45.5185 80.0006 45.6558 80.2346L45.1429 80.5382L43.4333 77.6112L43.4337 77.6146ZM45.8369 76.8071L46.3369 76.5123L46.8705 77.4243C47.0465 77.728 47.1996 77.9895 47.3282 78.2108C47.4563 78.4286 47.5821 78.6415 47.6996 78.8451L47.1996 79.1399C47.0753 78.925 46.9472 78.7072 46.8191 78.4894C46.6924 78.2696 46.5417 78.013 46.3681 77.7142L45.8383 76.8051L45.8369 76.8071Z" fill="#F73E9F"/>
<path d="M62.4682 103.527C62.751 103.397 63.0451 103.26 63.354 103.116C63.6628 102.972 63.957 102.835 64.2344 102.704L66.026 101.875C66.3496 101.723 66.6403 101.587 66.9015 101.465C67.1613 101.345 67.4225 101.223 67.6852 101.099L68.7851 102.285C68.6367 102.548 68.4942 102.804 68.3562 103.053C68.2163 103.302 68.0614 103.581 67.8944 103.889L66.9311 105.617C66.7777 105.895 66.6183 106.181 66.4549 106.476C66.2896 106.77 66.1347 107.049 65.9852 107.318L65.1047 106.367C65.2623 106.108 65.4244 105.843 65.589 105.57C65.7536 105.297 65.9098 105.04 66.057 104.794L67.4793 102.447L67.418 102.379L64.9933 103.605C64.7305 103.741 64.454 103.879 64.1646 104.026C63.8768 104.171 63.5973 104.313 63.3291 104.448L62.4731 103.525L62.4682 103.527ZM64.1978 103.709L64.9805 103.164L66.6315 104.945L66.0135 105.668L64.1963 103.711L64.1978 103.709Z" fill="#F73E9F"/>
<path d="M66.7495 108.103C66.9593 107.896 67.1633 107.697 67.3593 107.503C67.5568 107.308 67.776 107.093 68.0233 106.852L69.3495 105.549C69.6009 105.299 69.828 105.077 70.0319 104.878C70.2358 104.678 70.4427 104.475 70.6555 104.264L71.5342 105.161C71.3214 105.372 71.1125 105.574 70.9106 105.775C70.7067 105.974 70.4815 106.198 70.2282 106.446L69.0487 107.605C68.8033 107.847 68.584 108.063 68.3865 108.258C68.189 108.453 67.9851 108.652 67.7768 108.858L68.1131 107.917L68.857 108.678C69.0402 108.863 69.2016 109.029 69.3427 109.174C69.4838 109.318 69.6129 109.45 69.7337 109.573C69.8546 109.696 69.9773 109.82 70.1044 109.951L69.3169 110.724L66.7534 108.106L66.7495 108.103Z" fill="#F73E9F"/>
<path d="M70.1219 111.522C70.3259 111.311 70.526 111.108 70.7177 110.909C70.9113 110.711 71.1262 110.489 71.3658 110.242L72.66 108.908C72.9056 108.654 73.1283 108.426 73.3264 108.222C73.5245 108.018 73.7271 107.808 73.9375 107.592L74.836 108.468C74.629 108.683 74.4245 108.891 74.2264 109.095C74.0283 109.299 73.8055 109.527 73.56 109.782L72.407 110.97C72.1674 111.217 71.9525 111.439 71.7589 111.637C71.5672 111.836 71.3672 112.038 71.1631 112.25L71.4776 111.302L72.2417 112.044C72.4278 112.226 72.5957 112.388 72.7383 112.53C72.8824 112.671 73.0144 112.799 73.1367 112.92C73.2605 113.039 73.3867 113.163 73.5168 113.289L72.7491 114.081L70.1238 111.524L70.1219 111.522Z" fill="#F73E9F"/>
<path d="M77.1081 115.506L77.7286 113.162C77.7944 112.907 77.86 112.664 77.9201 112.432C77.9822 112.202 78.0515 111.934 78.1289 111.635L79.1818 112.597C79.1081 112.818 79.0441 113.007 78.9896 113.163C78.9352 113.319 78.8852 113.469 78.8374 113.608C78.7899 113.751 78.737 113.905 78.679 114.074L78.401 114.901L78.4764 114.971L79.2549 114.633C79.4282 114.558 79.5852 114.492 79.7252 114.429C79.8651 114.366 80.0138 114.303 80.1669 114.235C80.322 114.168 80.5017 114.089 80.7132 114L81.7347 114.935C81.487 115.027 81.2373 115.118 80.9896 115.21C80.7419 115.302 80.5006 115.39 80.2631 115.48L77.9892 116.315L77.1047 115.506L77.1081 115.506ZM75.7871 116.915C75.9854 116.699 76.1772 116.487 76.3645 116.281C76.5504 116.077 76.759 115.847 76.9924 115.593L77.8075 114.7L78.7356 115.548L77.9204 116.442C77.6905 116.695 77.4819 116.925 77.2941 117.128C77.1067 117.334 76.9164 117.543 76.7167 117.761L75.7867 116.912L75.7871 116.915Z" fill="#F73E9F"/>
<path d="M80.5344 121.291C80.164 120.969 79.893 120.633 79.7213 120.283C79.5497 119.933 79.465 119.582 79.4638 119.23C79.4627 118.877 79.5308 118.534 79.6668 118.203C79.8061 117.871 79.9975 117.563 80.2424 117.278C80.5921 116.875 80.9856 116.579 81.4264 116.39C81.8671 116.202 82.3275 116.148 82.8073 116.23C83.2872 116.311 83.7625 116.556 84.233 116.963C84.5913 117.273 84.8541 117.6 85.0249 117.942C85.1956 118.285 85.2833 118.633 85.2913 118.984C85.2978 119.338 85.2331 119.68 85.0961 120.017C84.9591 120.354 84.7637 120.671 84.5031 120.969C84.1459 121.382 83.7456 121.678 83.3039 121.86C82.8608 122.044 82.4034 122.094 81.9265 122.008C81.4515 121.924 80.9855 121.683 80.5309 121.291L80.5344 121.291ZM81.2015 120.491C81.3908 120.657 81.5899 120.765 81.7936 120.815C81.9973 120.865 82.2035 120.868 82.4067 120.822C82.6134 120.776 82.8097 120.691 82.9976 120.569C83.1871 120.445 83.3587 120.292 83.518 120.111C83.6846 119.92 83.8133 119.719 83.906 119.509C83.9986 119.299 84.0496 119.091 84.0607 118.883C84.0717 118.676 84.0347 118.475 83.9571 118.283C83.8761 118.092 83.747 117.92 83.5659 117.763C83.3805 117.6 83.1833 117.493 82.9777 117.442C82.772 117.39 82.5674 117.385 82.3602 117.428C82.1531 117.471 81.9548 117.554 81.765 117.675C81.5717 117.796 81.3966 117.95 81.2359 118.133C81.0771 118.317 80.9509 118.511 80.8559 118.716C80.7609 118.922 80.7098 119.13 80.6919 119.338C80.6775 119.546 80.7115 119.751 80.7895 119.946C80.8695 120.142 81.0068 120.324 81.1995 120.489L81.2015 120.491Z" fill="#F73E9F"/>
<path d="M85.3887 125.384C84.9605 125.033 84.6716 124.681 84.5258 124.329C84.3781 123.976 84.3511 123.626 84.4438 123.271C84.535 122.917 84.7239 122.565 85.0095 122.218C85.0743 122.141 85.1585 122.038 85.2619 121.91C85.3654 121.782 85.4812 121.642 85.6075 121.489C85.7337 121.335 85.8599 121.181 85.9861 121.027C86.2099 120.754 86.4128 120.507 86.593 120.287C86.7732 120.066 86.9564 119.841 87.1489 119.609L88.1166 120.401C87.9256 120.632 87.7409 120.858 87.5608 121.079C87.3786 121.298 87.1776 121.546 86.9539 121.82L86.0227 122.958C85.8574 123.159 85.7439 123.357 85.6814 123.543C85.6188 123.73 85.6164 123.91 85.6741 124.084C85.7319 124.257 85.8547 124.422 86.0461 124.577C86.2379 124.735 86.424 124.824 86.6031 124.847C86.7817 124.865 86.9546 124.827 87.1262 124.727C87.2944 124.626 87.4626 124.474 87.6294 124.271L88.559 123.134C88.7828 122.86 88.9857 122.614 89.1644 122.395C89.3446 122.175 89.5293 121.948 89.7203 121.717L90.6881 122.51C90.497 122.741 90.3124 122.967 90.1322 123.188C89.9501 123.407 89.7491 123.655 89.5268 123.926C89.3991 124.082 89.2729 124.236 89.1451 124.392C89.0174 124.547 88.9016 124.687 88.7967 124.817C88.6917 124.947 88.609 125.047 88.5472 125.121C88.2616 125.468 87.953 125.72 87.6192 125.873C87.2873 126.027 86.9331 126.066 86.5591 125.994C86.1847 125.919 85.797 125.716 85.3882 125.381L85.3887 125.384Z" fill="#F73E9F"/>
<path d="M89.5341 128.587C89.7125 128.353 89.8869 128.128 90.0568 127.909C90.2248 127.688 90.414 127.443 90.6241 127.172L91.7566 125.696C91.9726 125.416 92.1678 125.164 92.3403 124.937C92.5127 124.711 92.6901 124.482 92.8748 124.243L93.7423 124.91C93.7145 125.361 93.6924 125.788 93.6686 126.189C93.6448 126.591 93.6244 126.991 93.6006 127.393L93.517 128.955L93.5887 129.009L94.5117 127.809C94.7258 127.528 94.921 127.275 95.0954 127.05C95.2678 126.824 95.4466 126.593 95.6299 126.356L96.5652 127.074C96.3839 127.313 96.205 127.544 96.0307 127.769C95.8563 127.994 95.663 128.247 95.447 128.527L94.3145 130.003C94.1063 130.276 93.9171 130.521 93.7491 130.741C93.5811 130.962 93.4068 131.187 93.2265 131.42L92.3667 130.759C92.3893 130.388 92.41 130.002 92.4299 129.598C92.4518 129.195 92.4736 128.752 92.4977 128.274L92.5805 126.693L92.5107 126.64L91.5536 127.885C91.3454 128.159 91.1562 128.403 90.9863 128.622C90.8183 128.843 90.6439 129.068 90.4636 129.301L89.5322 128.586L89.5341 128.587Z" fill="#F73E9F"/>
<path d="M94.383 132.278C94.557 132.037 94.7271 131.806 94.8897 131.584C95.0523 131.363 95.2338 131.112 95.438 130.836L96.5357 129.334C96.744 129.048 96.9333 128.791 97.1019 128.562C97.2685 128.331 97.4415 128.096 97.619 127.854L100.535 129.985L99.9248 130.819C99.7357 130.681 99.5331 130.533 99.3188 130.376C99.1026 130.218 98.848 130.033 98.5547 129.819L97.5182 129.061L98.4968 128.745C98.3212 128.987 98.1482 129.223 97.9797 129.452C97.8111 129.682 97.6237 129.94 97.4135 130.224L96.5523 131.404C96.35 131.681 96.1666 131.93 96.0025 132.154C95.8384 132.377 95.6717 132.608 95.4972 132.846L95.5668 131.865L96.6111 132.63C96.8559 132.807 97.0876 132.977 97.3058 133.137C97.524 133.297 97.7344 133.451 97.9351 133.597L97.3248 134.431L94.3854 132.283L94.383 132.278ZM96.4897 130.995L97.0584 130.216L97.8632 130.804C98.1352 131.002 98.3649 131.17 98.5598 131.313C98.7528 131.453 98.9399 131.59 99.1198 131.724L98.5511 132.503C98.362 132.365 98.1691 132.224 97.9776 132.082C97.7827 131.939 97.5533 131.774 97.2945 131.583L96.4916 130.997L96.4897 130.995Z" fill="#F73E9F"/>
<path d="M98.3202 135.139C98.4904 134.895 98.6531 134.661 98.8133 134.435C98.972 134.21 99.1497 133.957 99.3461 133.675L100.413 132.152C100.616 131.862 100.799 131.601 100.961 131.369C101.123 131.135 101.292 130.897 101.464 130.651L104.423 132.722L103.83 133.569C103.638 133.435 103.432 133.291 103.215 133.138C102.998 132.985 102.74 132.804 102.441 132.595L101.388 131.858L102.358 131.52C102.187 131.766 102.019 132.006 101.855 132.238C101.69 132.47 101.508 132.733 101.307 133.021L100.469 134.215C100.273 134.497 100.095 134.75 99.9347 134.977C99.7745 135.204 99.6117 135.437 99.443 135.679L99.4931 134.696L100.552 135.438C100.8 135.611 101.036 135.775 101.257 135.931C101.478 136.087 101.693 136.235 101.895 136.377L101.302 137.224L98.3182 135.137L98.3202 135.139ZM100.399 133.813L100.952 133.025L101.767 133.596C102.043 133.788 102.276 133.953 102.474 134.091C102.67 134.228 102.86 134.36 103.041 134.489L102.488 135.28C102.296 135.146 102.102 135.011 101.905 134.87C101.709 134.734 101.477 134.572 101.214 134.387L100.397 133.815L100.399 133.813Z" fill="#F73E9F"/>
<path d="M102.299 137.912C102.462 137.666 102.62 137.429 102.775 137.198C102.929 136.967 103.1 136.712 103.29 136.425L104.323 134.879C104.52 134.585 104.696 134.321 104.853 134.083C105.012 133.846 105.172 133.604 105.339 133.355C105.519 133.474 105.704 133.596 105.9 133.73C106.095 133.86 106.299 133.993 106.508 134.134C106.716 134.271 106.926 134.412 107.14 134.554C107.486 134.783 107.76 135.038 107.961 135.318C108.162 135.597 108.292 135.893 108.349 136.211C108.405 136.528 108.388 136.861 108.297 137.205C108.209 137.551 108.044 137.904 107.804 138.263C107.59 138.585 107.346 138.856 107.074 139.077C106.801 139.298 106.504 139.452 106.177 139.536C105.85 139.619 105.495 139.618 105.109 139.531C104.722 139.443 104.31 139.252 103.867 138.958C103.664 138.822 103.473 138.695 103.295 138.578C103.118 138.462 102.947 138.348 102.783 138.238C102.62 138.129 102.46 138.023 102.297 137.914L102.299 137.912ZM103.903 137.768L104.423 138.114C104.75 138.332 105.051 138.441 105.328 138.439C105.605 138.437 105.859 138.356 106.092 138.191C106.325 138.026 106.534 137.803 106.719 137.524C106.861 137.314 106.964 137.106 107.027 136.898C107.092 136.692 107.115 136.493 107.097 136.3C107.076 136.106 107.009 135.925 106.895 135.752C106.78 135.578 106.613 135.42 106.394 135.272L105.819 134.889C105.723 135.032 105.627 135.178 105.529 135.323C105.431 135.467 105.322 135.634 105.197 135.819L104.5 136.868C104.38 137.045 104.274 137.205 104.181 137.347C104.085 137.489 103.993 137.629 103.901 137.766L103.903 137.768Z" fill="#F73E9F"/>
<path d="M108.593 142.042C108.747 141.792 108.898 141.549 109.044 141.312C109.19 141.077 109.354 140.814 109.533 140.522L110.511 138.94C110.696 138.64 110.866 138.369 111.014 138.127C111.161 137.884 111.317 137.636 111.474 137.382L112.405 137.956C112.423 138.407 112.443 138.832 112.462 139.232C112.478 139.633 112.497 140.036 112.513 140.437L112.588 141.999L112.666 142.046L113.462 140.759C113.648 140.459 113.818 140.187 113.965 139.945C114.115 139.704 114.271 139.456 114.427 139.202L115.429 139.82C115.273 140.074 115.117 140.322 114.97 140.565C114.82 140.805 114.652 141.078 114.467 141.378L113.489 142.96C113.308 143.25 113.144 143.514 113 143.75C112.855 143.985 112.704 144.228 112.549 144.48L111.628 143.912C111.613 143.542 111.595 143.155 111.575 142.751C111.556 142.349 111.533 141.909 111.509 141.43L111.433 139.849L111.357 139.804L110.53 141.139C110.349 141.433 110.187 141.695 110.041 141.93C109.895 142.166 109.745 142.407 109.59 142.659L108.59 142.043L108.593 142.042Z" fill="#F73E9F"/>
<path d="M116.094 146.678C115.669 146.432 115.338 146.155 115.105 145.845C114.872 145.535 114.719 145.206 114.653 144.862C114.585 144.517 114.586 144.17 114.658 143.818C114.73 143.465 114.862 143.128 115.049 142.801C115.314 142.34 115.646 141.976 116.047 141.707C116.444 141.439 116.886 141.297 117.375 141.287C117.861 141.275 118.376 141.423 118.914 141.734C119.324 141.972 119.644 142.24 119.877 142.545C120.109 142.848 120.263 143.172 120.337 143.514C120.412 143.858 120.412 144.207 120.34 144.563C120.272 144.918 120.137 145.268 119.939 145.608C119.669 146.081 119.332 146.447 118.929 146.711C118.529 146.974 118.086 147.109 117.603 147.117C117.119 147.125 116.617 146.98 116.094 146.678ZM116.598 145.766C116.815 145.891 117.032 145.961 117.242 145.97C117.453 145.979 117.655 145.942 117.847 145.86C118.038 145.777 118.216 145.656 118.378 145.499C118.541 145.342 118.681 145.162 118.803 144.953C118.93 144.735 119.019 144.513 119.07 144.289C119.12 144.066 119.131 143.851 119.103 143.646C119.073 143.44 119.003 143.251 118.888 143.08C118.772 142.906 118.612 142.763 118.406 142.643C118.193 142.521 117.978 142.453 117.767 142.44C117.556 142.428 117.352 142.463 117.158 142.544C116.965 142.625 116.785 142.745 116.618 142.901C116.45 143.057 116.308 143.239 116.184 143.45C116.062 143.659 115.974 143.875 115.92 144.094C115.867 144.313 115.854 144.527 115.879 144.735C115.905 144.943 115.976 145.135 116.09 145.315C116.206 145.493 116.374 145.646 116.595 145.77L116.598 145.766Z" fill="#F73E9F"/>
<path d="M120.514 149.045C120.578 148.772 120.647 148.48 120.718 148.17C120.789 147.86 120.857 147.572 120.918 147.304L121.325 145.575C121.396 145.268 121.475 144.931 121.56 144.566C121.644 144.202 121.726 143.857 121.804 143.534L123.056 144.194C122.96 144.522 122.857 144.869 122.751 145.23C122.647 145.592 122.546 145.937 122.449 146.262L121.91 148.084L121.994 148.126L123.222 146.643C123.363 146.473 123.511 146.295 123.667 146.106C123.822 145.919 123.979 145.729 124.138 145.539C124.297 145.352 124.447 145.17 124.589 145L125.773 145.624C125.679 145.954 125.583 146.297 125.482 146.655C125.381 147.013 125.285 147.356 125.191 147.689L124.669 149.537L124.75 149.579L125.976 148.089C126.185 147.835 126.411 147.562 126.651 147.267C126.891 146.972 127.117 146.7 127.327 146.443L128.583 147.107C128.352 147.353 128.11 147.61 127.857 147.883C127.603 148.156 127.371 148.405 127.159 148.635L125.935 149.949C125.743 150.154 125.54 150.375 125.323 150.608C125.108 150.842 124.905 151.061 124.715 151.258L123.365 150.546C123.447 150.241 123.53 149.922 123.617 149.587C123.706 149.253 123.791 148.936 123.873 148.635L124.328 146.911L124.242 146.867L123.086 148.221C122.885 148.456 122.673 148.708 122.444 148.972C122.216 149.236 122.001 149.485 121.799 149.723L120.512 149.043L120.514 149.045Z" fill="#F73E9F"/>
<path d="M111.456 55.0891C111.603 54.8312 111.746 54.5826 111.884 54.3452C112.024 54.1058 112.175 53.8386 112.349 53.5421L113.277 51.9326C113.453 51.6253 113.612 51.3483 113.755 51.1031C113.899 50.8579 114.044 50.6039 114.192 50.344C114.385 50.4534 114.642 50.6027 114.964 50.7865C115.287 50.9738 115.66 51.1871 116.081 51.4271C116.464 51.6479 116.758 51.8776 116.959 52.1202C117.16 52.3628 117.262 52.6314 117.267 52.9222C117.271 53.215 117.167 53.5489 116.954 53.9172C116.773 54.2304 116.558 54.4733 116.31 54.6457C116.061 54.82 115.777 54.9032 115.455 54.8956C115.135 54.8895 114.767 54.7696 114.36 54.5366C114.256 54.476 114.141 54.4099 114.015 54.3385C113.892 54.2665 113.771 54.1995 113.654 54.132C113.537 54.0645 113.437 54.0069 113.354 53.9591L113.834 53.1277L114.589 53.5603C114.781 53.6697 114.952 53.735 115.103 53.7541C115.253 53.7733 115.389 53.7474 115.51 53.6729C115.63 53.6004 115.739 53.477 115.84 53.3041C115.918 53.1693 115.963 53.0461 115.97 52.9369C115.98 52.8273 115.963 52.7284 115.924 52.643C115.883 52.5562 115.827 52.4801 115.752 52.4138C115.679 52.3489 115.598 52.2903 115.513 52.241L114.253 51.5157L115.166 51.1285C115.017 51.3884 114.871 51.6409 114.729 51.8876C114.587 52.1343 114.428 52.4113 114.251 52.717L113.422 54.1556C113.25 54.4536 113.097 54.7193 112.958 54.9587C112.822 55.1975 112.678 55.4462 112.529 55.7026L111.457 55.0872L111.456 55.0891Z" fill="#F73E9F"/>
<path d="M115.988 57.7153C116.141 57.4618 116.287 57.2181 116.43 56.9817C116.573 56.7453 116.734 56.4786 116.909 56.1836L117.868 54.5908C118.049 54.288 118.215 54.0135 118.363 53.7712C118.509 53.5275 118.659 53.2779 118.815 53.0205L119.915 53.6791C119.761 53.9346 119.61 54.1842 119.463 54.4298C119.315 54.6721 119.149 54.9466 118.968 55.2494L118.009 56.8422C117.832 57.1358 117.675 57.402 117.532 57.6384C117.389 57.8748 117.241 58.1204 117.09 58.372L115.99 57.7133L115.988 57.7153Z" fill="#F73E9F"/>
<path d="M118.281 59.0883C118.437 58.8397 118.59 58.5984 118.738 58.363C118.885 58.1296 119.051 57.8673 119.233 57.5767L120.225 56.0037C120.414 55.7033 120.585 55.4352 120.734 55.1944C120.885 54.9517 121.041 54.7065 121.201 54.4521L122.127 55.0337C122.145 55.4851 122.16 55.9125 122.174 56.312C122.188 56.7115 122.203 57.1145 122.218 57.5174L122.279 59.0817L122.357 59.1285L123.163 57.8485C123.352 57.5481 123.522 57.28 123.672 57.0392C123.825 56.798 123.979 56.5513 124.139 56.2969L125.137 56.9243C124.979 57.1768 124.821 57.4239 124.672 57.6647C124.519 57.9059 124.35 58.1755 124.163 58.4739L123.17 60.047C122.989 60.3376 122.823 60.5999 122.674 60.8353C122.527 61.0687 122.374 61.31 122.217 61.5605L121.299 60.9848C121.287 60.6147 121.272 60.2274 121.256 59.823C121.239 59.4185 121.221 58.9794 121.2 58.5005L121.136 56.9191L121.062 56.8718L120.225 58.1997C120.041 58.4908 119.876 58.7511 119.729 58.988C119.582 59.2214 119.429 59.4627 119.272 59.7132L118.278 59.0888L118.281 59.0883Z" fill="#F73E9F"/>
<path d="M123.335 62.2883C123.5 62.0437 123.657 61.8054 123.811 61.5744C123.965 61.3434 124.136 61.0875 124.328 60.8024L125.361 59.2569C125.558 58.9624 125.734 58.6987 125.893 58.4619C126.05 58.2236 126.211 57.9829 126.379 57.7343L127.419 58.4275C127.254 58.6775 127.09 58.9202 126.933 59.1551C126.776 59.3934 126.6 59.6571 126.401 59.95L125.368 61.4955C125.178 61.7822 125.007 62.0381 124.853 62.269C124.699 62.5 124.54 62.7368 124.377 62.983L123.335 62.2883ZM125.942 64.0237C125.938 63.7275 125.933 63.4524 125.927 63.1914C125.924 62.93 125.918 62.6759 125.915 62.4233L125.892 61.1661L125.599 60.9711L126.15 60.1474L126.431 60.3335L127.433 59.9862C127.673 59.9039 127.909 59.824 128.144 59.7407C128.381 59.6588 128.652 59.5634 128.966 59.4535L130.168 60.255C129.809 60.3642 129.459 60.4741 129.118 60.581C128.776 60.6879 128.433 60.7967 128.085 60.908L126.772 61.3211L127.061 60.8444L127.119 62.4827C127.128 62.7363 127.137 63.0055 127.146 63.2959C127.156 63.5843 127.165 63.8658 127.175 64.1419C127.185 64.4146 127.194 64.656 127.206 64.8621L125.944 64.0218L125.942 64.0237Z" fill="#F73E9F"/>
<path d="M128.891 66.0276C129.141 65.8444 129.403 65.6491 129.679 65.4465C129.953 65.2444 130.213 65.051 130.461 64.8664L132.052 63.6936C132.338 63.4792 132.597 63.2878 132.829 63.1159C133.061 62.9439 133.291 62.774 133.525 62.6001L134.841 63.5376C134.748 63.8246 134.661 64.1038 134.573 64.3761C134.485 64.6485 134.393 64.9511 134.287 65.2836L133.688 67.1685C133.593 67.4732 133.493 67.7856 133.393 68.1069C133.292 68.4281 133.193 68.7317 133.101 69.0256L132.044 68.2736C132.148 67.9886 132.252 67.6982 132.359 67.3971C132.464 67.0979 132.568 66.8129 132.662 66.5449L133.586 63.9637L133.509 63.9115L131.376 65.5997C131.144 65.7839 130.902 65.9764 130.648 66.1776C130.394 66.3788 130.149 66.5717 129.912 66.7584L128.888 66.028L128.891 66.0276ZM130.625 65.8578L131.284 65.1656L133.262 66.5766L132.802 67.4071L130.628 65.8574L130.625 65.8578Z" fill="#F73E9F"/>
<path d="M134.613 70.1556C134.712 69.8852 134.814 69.5987 134.924 69.2937C135.033 68.9886 135.135 68.7055 135.227 68.445L135.83 66.7515C135.899 66.5603 135.972 66.3477 136.054 66.1198C136.135 65.892 136.22 65.6603 136.302 65.4271C136.385 65.1939 136.465 64.968 136.542 64.7549L137.656 65.5878C137.522 65.9207 137.378 66.2741 137.227 66.6495C137.073 67.0254 136.929 67.3788 136.794 67.7102L136.021 69.6018L136.093 69.6564L137.72 68.3877C138.006 68.1646 138.305 67.9327 138.617 67.6886C138.927 67.4465 139.229 67.2107 139.519 66.9817L140.605 67.7925C140.416 67.9269 140.224 68.0672 140.025 68.2118C139.826 68.3565 139.629 68.4992 139.438 68.6375C139.243 68.7763 139.063 68.9078 138.894 69.0344L137.429 70.0937C137.199 70.2583 136.958 70.4351 136.7 70.6211C136.44 70.8091 136.195 70.9898 135.959 71.1588L134.613 70.1521L134.613 70.1556Z" fill="#F73E9F"/>
<path d="M139.956 74.3804C139.573 74.076 139.284 73.7547 139.098 73.4123C138.911 73.0699 138.808 72.7229 138.79 72.3729C138.773 72.0208 138.824 71.6769 138.946 71.3386C139.068 71.0022 139.246 70.6842 139.479 70.3899C139.809 69.9721 140.19 69.6573 140.621 69.4489C141.052 69.2405 141.511 69.1644 141.993 69.223C142.475 69.2816 142.962 69.5037 143.452 69.8893C143.824 70.1815 144.102 70.4953 144.289 70.8289C144.475 71.1645 144.579 71.5061 144.603 71.8572C144.624 72.2068 144.578 72.5537 144.455 72.8954C144.333 73.2371 144.153 73.5625 143.907 73.8724C143.57 74.3 143.184 74.6172 142.749 74.8192C142.315 75.0227 141.859 75.0915 141.381 75.0305C140.904 74.9695 140.426 74.7532 139.952 74.3775L139.956 74.3804ZM140.587 73.5525C140.783 73.7085 140.986 73.8076 141.196 73.8466C141.401 73.886 141.608 73.8799 141.808 73.8259C142.01 73.7698 142.204 73.6766 142.386 73.5466C142.569 73.4146 142.734 73.2536 142.884 73.0652C143.041 72.8671 143.162 72.66 143.243 72.4478C143.327 72.2337 143.369 72.0219 143.367 71.8143C143.368 71.6082 143.324 71.4083 143.234 71.222C143.146 71.0351 143.005 70.8662 142.82 70.7191C142.627 70.5662 142.426 70.4685 142.216 70.4261C142.007 70.3837 141.804 70.3893 141.599 70.4404C141.395 70.495 141.201 70.5848 141.014 70.7138C140.826 70.8448 140.659 71.0043 140.509 71.1961C140.358 71.3865 140.242 71.5877 140.156 71.7969C140.07 72.0061 140.028 72.2145 140.024 72.4245C140.019 72.633 140.061 72.8349 140.149 73.0286C140.238 73.2223 140.383 73.3976 140.582 73.555L140.587 73.5525Z" fill="#F73E9F"/>
<path d="M145.05 78.5169C144.711 78.2342 144.448 77.9287 144.263 77.5966C144.078 77.2645 143.97 76.9233 143.939 76.5698C143.908 76.2162 143.952 75.8644 144.073 75.5124C144.194 75.1604 144.388 74.8209 144.658 74.4988C145.009 74.0781 145.407 73.7732 145.854 73.58C146.299 73.3888 146.759 73.3318 147.235 73.4104C147.711 73.4891 148.171 73.7096 148.616 74.0789C148.751 74.1911 148.877 74.3115 148.994 74.4382C149.112 74.5649 149.218 74.6951 149.316 74.8247C149.413 74.9543 149.496 75.0824 149.569 75.2084C149.641 75.3345 149.7 75.4537 149.748 75.564L148.923 76.4069C148.851 76.1829 148.769 75.9848 148.676 75.8092C148.585 75.6351 148.484 75.478 148.376 75.3464C148.268 75.2114 148.155 75.0945 148.039 74.9971C147.802 74.7979 147.545 74.6731 147.272 74.6256C146.999 74.5781 146.724 74.6093 146.449 74.7243C146.173 74.8379 145.912 75.0435 145.67 75.3373C145.513 75.5232 145.394 75.7249 145.312 75.9371C145.226 76.1497 145.188 76.3645 145.193 76.5838C145.197 76.8031 145.25 77.0192 145.358 77.2311C145.465 77.4415 145.629 77.6404 145.852 77.8258C145.944 77.902 146.04 77.9724 146.145 78.0364C146.247 78.0989 146.358 78.1586 146.473 78.209C146.591 78.2588 146.717 78.299 146.85 78.3293C146.983 78.3597 147.125 78.3783 147.278 78.3867L146.588 79.3241C146.465 79.3011 146.338 79.2663 146.208 79.2164C146.078 79.1665 145.946 79.1063 145.815 79.0372C145.683 78.9648 145.554 78.885 145.427 78.7979C145.301 78.7107 145.179 78.6178 145.061 78.5189L145.05 78.5169Z" fill="#F73E9F"/>
<path d="M147.11 80.1072C147.377 79.9496 147.657 79.7832 147.949 79.6081C148.242 79.4329 148.52 79.2651 148.783 79.108L150.482 78.1C150.789 77.9176 151.063 77.7502 151.311 77.6058C151.558 77.4579 151.806 77.31 152.055 77.1601L153.27 78.227C153.151 78.5036 153.033 78.7714 152.921 79.0349C152.809 79.2983 152.683 79.5881 152.547 79.9127L151.762 81.7274C151.637 82.0206 151.509 82.3212 151.375 82.6296C151.244 82.9395 151.115 83.2332 150.992 83.5157L150.017 82.6598C150.149 82.3866 150.283 82.1061 150.421 81.8198C150.557 81.532 150.685 81.2593 150.808 81.0013L151.985 78.5227L151.916 78.4608L149.629 79.9277C149.38 80.0898 149.119 80.2552 148.848 80.4309C148.574 80.6052 148.311 80.7745 148.058 80.9371L147.114 80.1067L147.11 80.1072ZM148.851 80.1093L149.573 79.4869L151.399 81.0901L150.857 81.8709L148.851 80.1093Z" fill="#F73E9F"/>
<path d="M151.7 84.157C151.9 83.9423 152.092 83.7306 152.283 83.5277C152.471 83.3252 152.678 83.0974 152.913 82.8447L154.174 81.4787C154.413 81.2201 154.63 80.984 154.822 80.7757C155.015 80.5674 155.213 80.3513 155.416 80.1327C155.573 80.2767 155.738 80.4301 155.91 80.5894C156.083 80.7486 156.264 80.9138 156.445 81.0858C156.628 81.2559 156.816 81.4269 157.003 81.6034C157.307 81.884 157.536 82.1786 157.692 82.4886C157.846 82.7971 157.926 83.1107 157.932 83.4328C157.937 83.755 157.867 84.0807 157.725 84.4077C157.584 84.7347 157.364 85.055 157.07 85.3735C156.807 85.658 156.525 85.8875 156.222 86.064C155.921 86.2387 155.602 86.3442 155.266 86.3752C154.932 86.4078 154.581 86.3501 154.214 86.2004C153.848 86.0542 153.471 85.8011 153.081 85.4398C152.901 85.2747 152.734 85.1199 152.575 84.9744C152.42 84.8284 152.269 84.6888 152.124 84.557C151.979 84.4253 151.838 84.2931 151.697 84.1609L151.7 84.157ZM153.305 84.2687L153.766 84.6934C154.054 84.9589 154.334 85.1136 154.607 85.1577C154.879 85.2018 155.144 85.1597 155.399 85.0334C155.655 84.9071 155.897 84.7215 156.124 84.4751C156.297 84.2888 156.432 84.0989 156.527 83.9058C156.626 83.7124 156.678 83.5182 156.688 83.3249C156.701 83.1311 156.663 82.939 156.576 82.7522C156.49 82.5634 156.352 82.3783 156.158 82.1994L155.651 81.7305C155.535 81.8549 155.416 81.9832 155.299 82.113C155.179 82.2413 155.044 82.3876 154.894 82.5515L154.04 83.477C153.895 83.635 153.763 83.7755 153.649 83.9014C153.531 84.0278 153.419 84.1517 153.307 84.2702L153.305 84.2687Z" fill="#F73E9F"/>
<path d="M157.838 90.1165C157.488 89.7725 157.239 89.4196 157.09 89.0597C156.942 88.6998 156.877 88.3422 156.899 87.9918C156.919 87.6399 157.007 87.3029 157.167 86.9804C157.323 86.6584 157.533 86.362 157.798 86.0948C158.173 85.7143 158.584 85.4442 159.035 85.2819C159.487 85.1196 159.949 85.0954 160.424 85.2073C160.898 85.3177 161.356 85.5926 161.801 86.03C162.139 86.3617 162.381 86.7033 162.529 87.0563C162.679 87.4108 162.744 87.7631 162.729 88.1125C162.715 88.4654 162.629 88.8039 162.473 89.1293C162.317 89.4548 162.099 89.7609 161.822 90.0438C161.441 90.432 161.024 90.7066 160.571 90.8586C160.119 91.014 159.658 91.0328 159.189 90.92C158.721 90.8071 158.271 90.5381 157.842 90.116L157.838 90.1165ZM158.553 89.3589C158.731 89.5348 158.923 89.6564 159.124 89.7194C159.326 89.7838 159.528 89.7992 159.736 89.7633C159.945 89.7308 160.146 89.6591 160.341 89.5482C160.536 89.4373 160.719 89.2965 160.888 89.1229C161.065 88.9429 161.207 88.7486 161.311 88.5473C161.417 88.344 161.481 88.1397 161.504 87.9322C161.527 87.7247 161.506 87.5234 161.438 87.3269C161.37 87.1303 161.251 86.9497 161.08 86.7797C160.905 86.6067 160.715 86.4866 160.513 86.4222C160.311 86.3578 160.108 86.3389 159.899 86.3714C159.69 86.4005 159.485 86.4726 159.287 86.5806C159.088 86.6885 158.903 86.8313 158.732 87.0034C158.563 87.1771 158.424 87.364 158.318 87.5639C158.212 87.7637 158.146 87.9666 158.116 88.175C158.089 88.383 158.108 88.5882 158.178 88.7896C158.245 88.9916 158.371 89.18 158.549 89.3594L158.553 89.3589Z" fill="#F73E9F"/>
<path d="M159.118 164.126C159.28 163.857 159.45 163.577 159.627 163.28C159.804 162.983 159.975 162.703 160.137 162.437L161.17 160.723C161.353 160.414 161.522 160.136 161.672 159.89C161.822 159.64 161.975 159.392 162.126 159.141L163.018 159.313C163.06 159.608 163.102 159.899 163.143 160.183C163.184 160.467 163.231 160.787 163.281 161.139L163.569 163.114C163.615 163.432 163.663 163.755 163.712 164.089C163.761 164.422 163.807 164.744 163.851 165.049L163.147 164.911C163.101 164.577 163.058 164.232 163.009 163.878C162.963 163.525 162.917 163.191 162.877 162.877L162.474 159.843L162.409 159.831L160.86 162.457C160.692 162.743 160.516 163.041 160.334 163.353C160.152 163.664 159.974 163.967 159.798 164.258L159.113 164.125L159.118 164.126ZM160.377 162.971L160.545 162.449L163.251 162.976L163.192 163.521L160.377 162.971Z" fill="#F73E9F"/>
<path d="M166.812 165.471C166.847 165.171 166.882 164.88 166.915 164.6C166.948 164.32 166.984 164.014 167.023 163.677L167.237 161.856C167.277 161.514 167.314 161.2 167.348 160.917C167.383 160.635 167.415 160.342 167.45 160.039L168.139 160.116C168.106 160.417 168.069 160.71 168.035 160.993C168.003 161.277 167.965 161.587 167.925 161.933L167.724 163.646C167.686 163.981 167.65 164.29 167.617 164.567C167.584 164.847 167.551 165.136 167.514 165.438L167.314 164.904L168.311 165.015C168.599 165.046 168.856 165.075 169.077 165.099C169.298 165.122 169.503 165.146 169.693 165.166C169.882 165.187 170.075 165.208 170.271 165.231L170.199 165.845L166.815 165.471L166.812 165.471Z" fill="#F73E9F"/>
<path d="M171.653 165.931C171.672 165.628 171.69 165.335 171.708 165.054C171.726 164.774 171.744 164.464 171.766 164.129L171.881 162.301C171.904 161.957 171.923 161.642 171.94 161.359C171.956 161.076 171.975 160.781 171.996 160.476L172.699 160.515C172.679 160.818 172.663 161.113 172.642 161.397C172.624 161.683 172.606 161.996 172.584 162.339L172.469 164.167C172.449 164.504 172.428 164.812 172.411 165.092C172.394 165.372 172.375 165.666 172.356 165.969L171.653 165.931Z" fill="#F73E9F"/>
<path d="M175.714 166.043C175.712 165.739 175.708 165.447 175.706 165.164C175.704 164.885 175.701 164.575 175.699 164.237L175.685 162.505C175.682 162.163 175.679 161.849 175.678 161.565C175.677 161.281 175.673 160.984 175.669 160.679L175.949 161.192L175.304 161.203C174.996 161.206 174.722 161.211 174.484 161.214C174.246 161.218 174.019 161.222 173.805 161.225L173.801 160.608L178.228 160.54L178.233 161.157C178.019 161.161 177.793 161.164 177.558 161.167C177.323 161.17 177.046 161.176 176.736 161.18L176.091 161.192L176.365 160.67C176.368 160.977 176.37 161.271 176.373 161.557C176.373 161.842 176.376 162.156 176.38 162.497L176.394 164.229C176.396 164.567 176.4 164.876 176.401 165.157C176.401 165.438 176.405 165.73 176.407 166.034L175.716 166.044L175.714 166.043Z" fill="#F73E9F"/>
<path d="M181.578 165.621C181.535 165.32 181.491 165.031 181.451 164.753C181.411 164.476 181.365 164.17 181.316 163.837L181.066 162.126C181.017 161.789 180.972 161.477 180.93 161.195C180.887 160.913 180.845 160.622 180.802 160.317L181.148 160.788L180.509 160.887C180.203 160.935 179.933 160.976 179.697 161.012C179.461 161.049 179.239 161.083 179.025 161.114L178.938 160.505L183.319 159.831L183.408 160.442C183.196 160.475 182.974 160.509 182.738 160.545C182.503 160.58 182.232 160.623 181.924 160.669L181.285 160.769L181.486 160.215C181.531 160.518 181.573 160.809 181.612 161.091C181.654 161.373 181.7 161.683 181.748 162.022L181.998 163.733C182.048 164.066 182.091 164.371 182.133 164.65C182.175 164.929 182.215 165.218 182.26 165.517L181.576 165.623L181.578 165.621Z" fill="#F73E9F"/>
<path d="M185.872 164.749C185.772 164.463 185.675 164.189 185.582 163.924C185.49 163.659 185.387 163.368 185.275 163.052L184.67 161.329C184.556 161.005 184.454 160.708 184.357 160.441C184.264 160.172 184.165 159.896 184.065 159.61L184.717 159.376C184.818 159.662 184.916 159.94 185.009 160.209C185.102 160.477 185.207 160.773 185.321 161.097L185.889 162.72C186.003 163.038 186.102 163.33 186.196 163.592C186.288 163.857 186.386 164.131 186.486 164.418L186.074 164.027L187.02 163.689C187.294 163.59 187.536 163.502 187.746 163.427C187.955 163.353 188.15 163.282 188.33 163.218C188.508 163.154 188.692 163.09 188.88 163.02L189.083 163.601L185.869 164.753L185.872 164.749Z" fill="#F73E9F"/>
<path d="M190.931 162.61C190.752 162.367 190.577 162.134 190.411 161.909C190.244 161.683 190.06 161.438 189.86 161.169L188.772 159.702C188.571 159.432 188.386 159.18 188.216 158.952C188.046 158.721 187.872 158.487 187.69 158.243L190.414 156.206L190.766 156.681C190.562 156.833 190.341 156.998 190.106 157.174C189.871 157.35 189.595 157.556 189.274 157.796L188.277 158.542L188.291 157.917C188.471 158.163 188.647 158.398 188.817 158.626C188.986 158.854 189.171 159.102 189.374 159.374L190.343 160.679C190.541 160.947 190.725 161.192 190.892 161.418C191.06 161.645 191.234 161.879 191.414 162.121L190.847 161.936L191.862 161.179C192.13 160.979 192.382 160.788 192.622 160.61C192.862 160.432 193.091 160.26 193.31 160.097L193.662 160.572L190.931 162.614L190.931 162.61ZM189.885 160.309L189.541 159.847L190.394 159.21C190.676 158.999 190.919 158.817 191.125 158.663C191.33 158.51 191.529 158.362 191.719 158.22L192.063 158.682C191.861 158.831 191.66 158.983 191.455 159.135C191.25 159.288 191.008 159.468 190.734 159.675L189.887 160.31L189.885 160.309Z" fill="#F73E9F"/>
<path d="M197.306 154.341C197.175 154.787 196.99 155.155 196.747 155.445C196.507 155.737 196.227 155.959 195.912 156.108C195.597 156.256 195.261 156.34 194.902 156.357C194.545 156.371 194.183 156.327 193.822 156.222C193.314 156.073 192.887 155.837 192.54 155.514C192.191 155.187 191.958 154.794 191.832 154.331C191.709 153.87 191.728 153.358 191.897 152.795C192.022 152.369 192.203 152.01 192.439 151.724C192.675 151.438 192.95 151.218 193.263 151.065C193.574 150.913 193.911 150.828 194.272 150.809C194.632 150.791 195.001 150.837 195.373 150.944C195.889 151.094 196.322 151.33 196.666 151.654C197.012 151.98 197.245 152.37 197.365 152.828C197.487 153.288 197.466 153.79 197.304 154.336L197.306 154.341ZM196.729 154.194C196.828 153.859 196.854 153.552 196.81 153.275C196.765 152.997 196.668 152.75 196.514 152.534C196.36 152.318 196.168 152.136 195.934 151.985C195.701 151.836 195.447 151.719 195.171 151.639C194.872 151.553 194.584 151.513 194.303 151.521C194.021 151.528 193.758 151.584 193.514 151.691C193.274 151.798 193.061 151.957 192.881 152.165C192.701 152.374 192.565 152.637 192.471 152.957C192.375 153.285 192.348 153.589 192.389 153.866C192.432 154.143 192.529 154.393 192.681 154.613C192.832 154.833 193.024 155.019 193.254 155.176C193.487 155.332 193.741 155.448 194.022 155.529C194.305 155.612 194.588 155.651 194.864 155.646C195.143 155.642 195.404 155.588 195.652 155.484C195.9 155.38 196.117 155.224 196.303 155.011C196.491 154.8 196.633 154.525 196.732 154.194L196.729 154.194Z" fill="#F73E9F"/>
<path d="M198.038 149.334C197.735 149.341 197.442 149.348 197.164 149.356C196.882 149.364 196.574 149.37 196.237 149.378L194.41 149.425C194.064 149.433 193.751 149.441 193.466 149.45C193.183 149.456 192.889 149.464 192.585 149.473L192.525 146.145L193.121 146.13C193.125 146.386 193.13 146.661 193.135 146.952C193.139 147.245 193.146 147.59 193.155 147.985L193.174 149.073L192.673 148.79C192.979 148.782 193.275 148.776 193.56 148.768C193.843 148.762 194.156 148.753 194.498 148.746L196.226 148.701C196.563 148.692 196.871 148.686 197.153 148.678C197.433 148.672 197.724 148.663 198.029 148.658L198.04 149.338L198.038 149.334ZM195.589 148.878L195.011 148.892L194.994 147.886C194.987 147.532 194.982 147.229 194.977 146.975C194.972 146.719 194.968 146.472 194.963 146.237L195.54 146.223C195.544 146.476 195.549 146.73 195.555 146.984C195.559 147.236 195.565 147.538 195.57 147.881L195.589 148.878Z" fill="#F73E9F"/>
<path d="M197.51 142.609C197.214 142.673 196.927 142.736 196.654 142.796C196.38 142.856 196.078 142.922 195.747 142.994L193.959 143.385C193.623 143.456 193.314 143.523 193.036 143.583C192.76 143.644 192.472 143.705 192.173 143.771L192.03 143.094C192.327 143.03 192.613 142.968 192.893 142.906C193.171 142.847 193.48 142.779 193.817 142.706L195.501 142.341C195.831 142.269 196.133 142.202 196.406 142.145C196.679 142.084 196.965 142.022 197.262 141.958L196.818 142.32L196.612 141.339C196.552 141.053 196.5 140.803 196.455 140.584C196.409 140.367 196.368 140.164 196.326 139.977C196.286 139.793 196.247 139.603 196.206 139.408L196.808 139.277L197.507 142.613L197.51 142.609Z" fill="#F73E9F"/>
<path d="M195.904 135.954C196.058 136.439 196.101 136.857 196.031 137.215C195.962 137.572 195.799 137.87 195.541 138.112C195.285 138.352 194.954 138.538 194.553 138.67C194.451 138.704 194.319 138.748 194.156 138.8C193.994 138.853 193.815 138.911 193.62 138.978C193.424 139.042 193.225 139.106 193.026 139.171C192.697 139.278 192.398 139.377 192.129 139.465C191.856 139.554 191.579 139.645 191.288 139.741L191.079 139.086C191.369 138.991 191.648 138.898 191.919 138.812C192.189 138.722 192.489 138.626 192.816 138.517L194.277 138.038C194.59 137.934 194.844 137.8 195.04 137.635C195.237 137.47 195.363 137.264 195.416 137.021C195.471 136.776 195.443 136.483 195.334 136.144C195.224 135.801 195.077 135.547 194.892 135.385C194.707 135.222 194.487 135.132 194.234 135.115C193.979 135.1 193.692 135.143 193.374 135.247L191.921 135.723C191.592 135.83 191.293 135.929 191.024 136.017C190.751 136.106 190.472 136.199 190.183 136.293L189.972 135.637C190.262 135.542 190.542 135.451 190.812 135.363C191.084 135.274 191.382 135.177 191.711 135.07C191.908 135.004 192.109 134.938 192.306 134.875C192.504 134.813 192.684 134.753 192.846 134.697C193.01 134.643 193.139 134.602 193.238 134.569C193.641 134.438 194.015 134.393 194.364 134.437C194.712 134.483 195.017 134.625 195.281 134.873C195.544 135.119 195.752 135.481 195.902 135.956L195.904 135.954Z" fill="#F73E9F"/>
<path d="M193.591 129.786C193.757 130.184 193.842 130.57 193.848 130.941C193.852 131.314 193.782 131.662 193.644 131.985C193.501 132.309 193.3 132.597 193.032 132.849C192.765 133.102 192.446 133.309 192.073 133.469C191.564 133.687 191.073 133.773 190.593 133.731C190.115 133.688 189.688 133.529 189.31 133.253C188.933 132.976 188.64 132.593 188.434 132.099C188.365 131.933 188.308 131.766 188.267 131.599C188.225 131.432 188.193 131.269 188.174 131.109C188.155 130.953 188.144 130.802 188.141 130.661C188.138 130.52 188.143 130.398 188.155 130.289L188.792 130.084C188.761 130.313 188.748 130.528 188.754 130.73C188.759 130.931 188.781 131.121 188.822 131.3C188.863 131.479 188.913 131.647 188.979 131.805C189.131 132.165 189.347 132.452 189.63 132.664C189.912 132.876 190.24 132.997 190.611 133.029C190.983 133.059 191.379 132.985 191.8 132.806C192.081 132.686 192.327 132.531 192.538 132.343C192.75 132.153 192.915 131.936 193.035 131.691C193.154 131.446 193.214 131.177 193.219 130.885C193.223 130.595 193.158 130.286 193.021 129.96C192.97 129.841 192.913 129.723 192.846 129.61C192.782 129.497 192.706 129.387 192.625 129.285C192.543 129.183 192.452 129.086 192.346 128.996C192.243 128.905 192.131 128.82 192.009 128.742L192.596 128.434C192.702 128.504 192.802 128.59 192.9 128.69C192.999 128.789 193.086 128.896 193.171 129.013C193.257 129.131 193.333 129.256 193.405 129.386C193.478 129.515 193.541 129.65 193.598 129.785L193.591 129.786Z" fill="#F73E9F"/>
<path d="M190.708 123.878C190.582 124.214 190.463 124.531 190.35 124.824C190.239 125.119 190.128 125.405 190.022 125.685L189.481 127.12L189.649 127.454L189.14 127.712L188.974 127.379L187.735 127C187.444 126.911 187.155 126.824 186.87 126.736C186.583 126.65 186.249 126.55 185.873 126.437L185.497 125.684C185.88 125.804 186.255 125.919 186.622 126.032C186.989 126.145 187.354 126.257 187.718 126.37L189.109 126.796L188.841 126.947L189.447 125.386C189.537 125.143 189.636 124.885 189.746 124.608C189.856 124.331 189.956 124.062 190.057 123.796C190.157 123.533 190.245 123.301 190.323 123.101L190.71 123.877L190.708 123.878ZM192.19 126.851C191.919 126.987 191.657 127.121 191.407 127.248C191.157 127.375 190.879 127.515 190.578 127.666L188.943 128.494C188.636 128.648 188.353 128.79 188.099 128.918C187.846 129.046 187.583 129.179 187.312 129.318L187.003 128.701C187.277 128.563 187.538 128.429 187.791 128.301C188.045 128.173 188.328 128.031 188.633 127.875L190.272 127.047C190.571 126.895 190.849 126.755 191.099 126.628C191.349 126.5 191.611 126.37 191.882 126.231L192.188 126.85L192.19 126.851Z" fill="#F73E9F"/>
<path d="M128.049 93.8234C125.981 92.1282 123.253 91.7851 120.947 92.6821C121.2 90.2222 120.148 87.6873 117.963 86.1444C114.832 83.9337 110.461 84.6188 108.113 87.6828C106.785 89.4162 106.783 91.3121 106.76 93.5272C106.724 96.8892 108.651 105.833 109.099 107.827C109.141 108.013 109.31 108.145 109.504 108.135C111.546 108.036 120.684 107.517 123.915 106.587C126.044 105.975 127.871 105.469 129.188 103.727C131.517 100.648 131.014 96.2529 128.049 93.8234Z" fill="#F73E9F"/>
<path d="M78.8954 65.4543C78.1466 66.9568 78.509 68.8057 79.2666 70.2923C79.4661 70.6818 79.7896 71.1378 80.1827 71.619C79.6172 71.3643 79.0911 71.1704 78.6626 71.0816C77.0285 70.7382 75.1519 70.8702 73.8967 71.9841C72.5427 73.1833 71.9457 74.1445 72.3731 77.4646C72.8004 80.7848 73.6234 81.5501 75.2335 82.3472C76.7281 83.0871 78.576 82.7113 80.065 81.9419C80.4551 81.7392 80.9125 81.412 81.3955 81.0148C81.1374 81.5832 80.9402 82.1116 80.8487 82.5416C80.4946 84.1812 80.6134 86.0605 81.7165 87.3105C82.904 88.6587 83.8592 89.2502 87.1761 88.7991C90.493 88.3479 91.2625 87.5181 92.0693 85.8993C92.8182 84.3968 92.4558 82.5479 91.6982 81.0613C91.4986 80.6719 91.1751 80.2159 90.782 79.7346C91.3475 79.9894 91.8736 80.1832 92.3021 80.272C93.9362 80.6154 95.8128 80.4834 97.0681 79.3695C98.422 78.1703 99.019 77.2092 98.5916 73.889C98.1643 70.5688 97.3413 69.8035 95.7312 69.0064C94.2367 68.2665 92.3888 68.6424 90.8997 69.4117C90.5096 69.6144 90.0522 69.9417 89.5692 70.3388C89.8274 69.7705 90.0245 69.242 90.116 68.812C90.4701 67.1724 90.3514 65.2932 89.2483 64.0431C88.0607 62.6949 87.1055 62.1034 83.7886 62.5545C80.4717 63.0057 79.7022 63.8355 78.8954 65.4543ZM85.4836 75.6731C85.4836 75.6731 85.4836 75.6731 85.4841 75.6766C85.4841 75.6766 85.4841 75.6766 85.4845 75.68C85.4845 75.68 85.4845 75.68 85.4811 75.6805C85.4811 75.6805 85.4811 75.6805 85.4777 75.681C85.4777 75.681 85.4777 75.681 85.4772 75.6775C85.4772 75.6775 85.4772 75.6775 85.4768 75.6741C85.4768 75.6741 85.4768 75.6741 85.4802 75.6736C85.4802 75.6736 85.4802 75.6736 85.4836 75.6731Z" fill="#F73E9F"/>
<path d="M140.202 112.127C139.453 113.63 139.816 115.479 140.573 116.965C140.773 117.355 141.096 117.811 141.489 118.292C140.924 118.037 140.398 117.843 139.969 117.755C138.335 117.411 136.459 117.543 135.203 118.657C133.849 119.856 133.252 120.817 133.68 124.137C134.107 127.458 134.93 128.223 136.54 129.02C138.035 129.76 139.883 129.384 141.372 128.615C141.762 128.412 142.219 128.085 142.702 127.688C142.444 128.256 142.247 128.784 142.155 129.214C141.801 130.854 141.92 132.733 143.023 133.983C144.211 135.332 145.166 135.923 148.483 135.472C151.8 135.021 152.569 134.191 153.376 132.572C154.125 131.07 153.762 129.221 153.005 127.734C152.805 127.345 152.482 126.889 152.089 126.407C152.654 126.662 153.18 126.856 153.609 126.945C155.243 127.288 157.119 127.156 158.375 126.042C159.729 124.843 160.326 123.882 159.898 120.562C159.471 117.242 158.648 116.476 157.038 115.679C155.543 114.939 153.695 115.315 152.206 116.085C151.816 116.287 151.359 116.614 150.876 117.012C151.134 116.443 151.331 115.915 151.423 115.485C151.777 113.845 151.658 111.966 150.555 110.716C149.367 109.368 148.412 108.776 145.095 109.227C141.778 109.679 141.009 110.508 140.202 112.127ZM146.79 122.346C146.79 122.346 146.79 122.346 146.791 122.349C146.791 122.349 146.791 122.349 146.791 122.353C146.791 122.353 146.791 122.353 146.788 122.353C146.788 122.353 146.788 122.353 146.784 122.354C146.784 122.354 146.784 122.354 146.784 122.35C146.784 122.35 146.784 122.35 146.783 122.347C146.783 122.347 146.783 122.347 146.787 122.346C146.787 122.346 146.787 122.346 146.79 122.346Z" fill="#F73E9F"/>
</g>
<defs>
<clipPath id="clip0_1430_2154">
<rect width="216.216" height="97.6164" fill="white" transform="translate(59.6797 -5.30566) rotate(37.2824)"/>
</clipPath>
</defs>
</svg>
