<svg width="20" height="20" viewBox="0 0 20 20" fill="none" xmlns="http://www.w3.org/2000/svg">
<path d="M17.612 2.59133C17.1722 2.08683 16.65 1.68663 16.0752 1.41358C15.5005 1.14054 14.8844 1 14.2623 1C13.6401 1 13.0241 1.14054 12.4493 1.41358C11.8746 1.68663 11.3524 2.08683 10.9126 2.59133L9.99977 3.63785L9.08699 2.59133C8.19858 1.57276 6.99364 1.00053 5.73725 1.00053C4.48085 1.00053 3.27591 1.57276 2.38751 2.59133C1.4991 3.6099 1 4.99139 1 6.43187C1 7.87235 1.4991 9.25383 2.38751 10.2724L9.99977 19L17.612 10.2724C18.0521 9.76814 18.4011 9.16942 18.6393 8.51045C18.8774 7.85148 19 7.14517 19 6.43187C19 5.71857 18.8774 5.01225 18.6393 4.35328C18.4011 3.69431 18.0521 3.09559 17.612 2.59133Z" stroke="black" stroke-linecap="round" stroke-linejoin="round"/>
</svg>
