<svg width="24" height="25" viewBox="0 0 24 25" fill="none" xmlns="http://www.w3.org/2000/svg">
<rect y="0.0830078" width="24" height="24" rx="12" fill="#1E1E1E"/>
<path d="M14.4833 10.447V16.756C14.4833 16.99 14.5013 17.155 14.5373 17.251C14.5733 17.347 14.6363 17.416 14.7263 17.458L14.9243 17.548C15.0623 17.602 15.1583 17.674 15.2123 17.764C15.2723 17.848 15.3023 17.947 15.3023 18.061C15.3023 18.223 15.2483 18.352 15.1403 18.448C15.0383 18.538 14.8733 18.583 14.6453 18.583H10.5233C10.2953 18.583 10.1273 18.538 10.0193 18.448C9.9173 18.352 9.8663 18.223 9.8663 18.061C9.8663 17.947 9.8963 17.848 9.9563 17.764C10.0163 17.674 10.1123 17.602 10.2443 17.548L10.4513 17.458C10.5413 17.416 10.6043 17.347 10.6403 17.251C10.6763 17.155 10.6943 16.99 10.6943 16.756V12.418C10.6943 12.238 10.6673 12.109 10.6133 12.031C10.5653 11.947 10.4903 11.893 10.3883 11.869L10.1903 11.806C10.0643 11.764 9.9743 11.707 9.9203 11.635C9.8663 11.557 9.8393 11.461 9.8393 11.347C9.8393 11.209 9.8753 11.101 9.9473 11.023C10.0253 10.939 10.1663 10.858 10.3703 10.78L12.4403 9.99701C12.7523 9.87701 12.9953 9.79301 13.1693 9.74501C13.3493 9.69701 13.5113 9.67301 13.6553 9.67301C13.9313 9.67301 14.1383 9.74501 14.2763 9.88901C14.4143 10.033 14.4833 10.219 14.4833 10.447ZM12.3953 8.89001C11.7293 8.89001 11.2013 8.73401 10.8113 8.42201C10.4273 8.10401 10.2353 7.67801 10.2353 7.14401C10.2353 6.61001 10.4273 6.19001 10.8113 5.88401C11.2013 5.57201 11.7293 5.41601 12.3953 5.41601C13.0613 5.41601 13.5863 5.57201 13.9703 5.88401C14.3603 6.19001 14.5553 6.61001 14.5553 7.14401C14.5553 7.67801 14.3603 8.10401 13.9703 8.42201C13.5863 8.73401 13.0613 8.89001 12.3953 8.89001Z" fill="#F73E9F"/>
</svg>
