<svg width="24" height="25" viewBox="0 0 24 25" fill="none" xmlns="http://www.w3.org/2000/svg">
<rect y="0.930664" width="24" height="24" rx="12" fill="#D5E882"/>
<path d="M14.4833 11.2947V17.6037C14.4833 17.8377 14.5013 18.0027 14.5373 18.0987C14.5733 18.1947 14.6363 18.2637 14.7263 18.3057L14.9243 18.3957C15.0623 18.4497 15.1583 18.5217 15.2123 18.6117C15.2723 18.6957 15.3023 18.7947 15.3023 18.9087C15.3023 19.0707 15.2483 19.1997 15.1403 19.2957C15.0383 19.3857 14.8733 19.4307 14.6453 19.4307H10.5233C10.2953 19.4307 10.1273 19.3857 10.0193 19.2957C9.9173 19.1997 9.8663 19.0707 9.8663 18.9087C9.8663 18.7947 9.8963 18.6957 9.9563 18.6117C10.0163 18.5217 10.1123 18.4497 10.2443 18.3957L10.4513 18.3057C10.5413 18.2637 10.6043 18.1947 10.6403 18.0987C10.6763 18.0027 10.6943 17.8377 10.6943 17.6037V13.2657C10.6943 13.0857 10.6673 12.9567 10.6133 12.8787C10.5653 12.7947 10.4903 12.7407 10.3883 12.7167L10.1903 12.6537C10.0643 12.6117 9.9743 12.5547 9.9203 12.4827C9.8663 12.4047 9.8393 12.3087 9.8393 12.1947C9.8393 12.0567 9.8753 11.9487 9.9473 11.8707C10.0253 11.7867 10.1663 11.7057 10.3703 11.6277L12.4403 10.8447C12.7523 10.7247 12.9953 10.6407 13.1693 10.5927C13.3493 10.5447 13.5113 10.5207 13.6553 10.5207C13.9313 10.5207 14.1383 10.5927 14.2763 10.7367C14.4143 10.8807 14.4833 11.0667 14.4833 11.2947ZM12.3953 9.73766C11.7293 9.73766 11.2013 9.58166 10.8113 9.26966C10.4273 8.95166 10.2353 8.52566 10.2353 7.99166C10.2353 7.45766 10.4273 7.03766 10.8113 6.73166C11.2013 6.41966 11.7293 6.26366 12.3953 6.26366C13.0613 6.26366 13.5863 6.41966 13.9703 6.73166C14.3603 7.03766 14.5553 7.45766 14.5553 7.99166C14.5553 8.52566 14.3603 8.95166 13.9703 9.26966C13.5863 9.58166 13.0613 9.73766 12.3953 9.73766Z" fill="#F73E9F"/>
</svg>
