<svg width="25" height="25" viewBox="0 0 25 25" fill="none" xmlns="http://www.w3.org/2000/svg">
<path d="M12.4658 2.49072C15.6702 2.49072 16.0493 2.5031 17.315 2.56074C18.4849 2.61409 19.1203 2.80939 19.5433 2.97373C20.1035 3.19141 20.5031 3.4515 20.9233 3.87115C21.3434 4.29129 21.6035 4.69094 21.8207 5.25112C21.985 5.67411 22.1803 6.30955 22.2337 7.47944C22.2913 8.74461 22.3037 9.12425 22.3037 12.3286C22.3037 15.533 22.2913 15.9121 22.2337 17.1778C22.1803 18.3477 21.985 18.9831 21.8207 19.4061C21.603 19.9663 21.3429 20.3659 20.9233 20.786C20.5031 21.2062 20.1035 21.4663 19.5433 21.6835C19.1203 21.8478 18.4849 22.0431 17.315 22.0965C16.0498 22.1541 15.6702 22.1665 12.4658 22.1665C9.26147 22.1665 8.88183 22.1541 7.61666 22.0965C6.44677 22.0431 5.81133 21.8478 5.38834 21.6835C4.82816 21.4658 4.42851 21.2057 4.00837 20.786C3.58824 20.3659 3.32816 19.9663 3.11095 19.4061C2.94661 18.9831 2.75131 18.3477 2.69796 17.1778C2.64032 15.9126 2.62794 15.533 2.62794 12.3286C2.62794 9.12425 2.64032 8.74508 2.69796 7.47944C2.75131 6.30955 2.94661 5.67411 3.11095 5.25112C3.32863 4.69094 3.58872 4.29129 4.00837 3.87115C4.42803 3.45102 4.82816 3.19094 5.38834 2.97373C5.81133 2.80939 6.44677 2.61409 7.61666 2.56074C8.88183 2.5031 9.26147 2.49072 12.4658 2.49072ZM12.4658 0.328601C9.20669 0.328601 8.79799 0.342415 7.51806 0.401005C6.24099 0.459119 5.36833 0.662041 4.60523 0.958801C3.81593 1.26557 3.14667 1.6757 2.47979 2.34305C1.81244 3.01041 1.40231 3.67919 1.09554 4.46849C0.79926 5.23159 0.596338 6.10377 0.538224 7.38084C0.479634 8.66077 0.46582 9.06947 0.46582 12.3286C0.46582 15.5877 0.479634 15.9964 0.538224 17.2764C0.596338 18.5534 0.799259 19.4261 1.09602 20.1892C1.40278 20.9785 1.81291 21.6478 2.48027 22.3146C3.14762 22.982 3.81641 23.3921 4.60571 23.6989C5.36881 23.9956 6.24146 24.1986 7.51854 24.2567C8.79847 24.3153 9.20717 24.3291 12.4663 24.3291C15.7254 24.3291 16.1341 24.3153 17.4141 24.2567C18.6911 24.1986 19.5638 23.9956 20.3269 23.6989C21.1162 23.3921 21.7854 22.982 22.4523 22.3146C23.1197 21.6473 23.5298 20.9785 23.8366 20.1892C24.1333 19.4261 24.3363 18.5534 24.3944 17.2764C24.453 15.9964 24.4668 15.5877 24.4668 12.3286C24.4668 9.06947 24.453 8.66077 24.3944 7.38084C24.3363 6.10377 24.1333 5.23111 23.8366 4.46801C23.5298 3.67871 23.1197 3.00945 22.4523 2.34257C21.785 1.67522 21.1162 1.26509 20.3269 0.958325C19.5638 0.661564 18.6911 0.458643 17.4141 0.400529C16.1341 0.341939 15.7254 0.328125 12.4663 0.328125L12.4658 0.328601Z" fill="#FFCCEC"/>
<path d="M12.4657 6.16797C9.06221 6.16797 6.30371 8.92694 6.30371 12.3299C6.30371 15.7329 9.06268 18.4919 12.4657 18.4919C15.8687 18.4919 18.6276 15.7329 18.6276 12.3299C18.6276 8.92694 15.8687 6.16797 12.4657 6.16797ZM12.4657 16.3302C10.2564 16.3302 8.46583 14.5392 8.46583 12.3304C8.46583 10.1216 10.2569 8.33056 12.4657 8.33056C14.6745 8.33056 16.4655 10.1216 16.4655 12.3304C16.4655 14.5392 14.6745 16.3302 12.4657 16.3302Z" fill="#FFCCEC"/>
<path d="M18.8716 7.36434C19.6669 7.36434 20.3116 6.71964 20.3116 5.92436C20.3116 5.12908 19.6669 4.48438 18.8716 4.48438C18.0763 4.48438 17.4316 5.12908 17.4316 5.92436C17.4316 6.71964 18.0763 7.36434 18.8716 7.36434Z" fill="#FFCCEC"/>
</svg>
