<svg width="378" height="71" viewBox="0 0 378 71" fill="none" xmlns="http://www.w3.org/2000/svg">
<path d="M61.6092 45.3521C60.2472 34.4467 55.8138 21.7419 52.686 14.1469C49.4816 6.36251 46.6876 0.474609 38.2763 0.474609C26.4938 0.474609 24.4236 6.2678 8.23699 23.3249C-7.98799 40.4203 1.93416 63.018 19.1626 69.0074C37.9245 75.5312 63.9522 64.0847 61.6115 45.3521H61.6092ZM42.7706 57.6037C39.1265 57.164 37.1962 54.8728 36.9053 51.0799C36.8579 50.4755 36.7677 49.8757 36.6527 49.2781C36.2671 47.2734 33.994 46.2654 32.2599 47.341C31.7164 47.677 31.1865 48.0333 30.6814 48.4189C28.3316 50.214 26.2728 52.4058 23.8509 54.0858C21.8236 55.4907 19.564 56.7964 17.2143 57.4458C13.2793 58.535 9.69375 56.1199 8.80752 52.3134C7.84462 48.1776 9.62384 44.9011 13.9648 44.0938C17.7239 43.3925 21.6297 43.4421 25.4745 43.2527C28.2527 43.1174 31.0399 43.2008 33.8181 43.0722C37.3157 42.9099 38.3891 41.9244 38.8424 38.4314C39.6857 31.9391 40.4818 25.4401 41.244 18.9388C41.4604 17.0987 41.359 15.2068 39.3227 14.3611C37.2029 13.4794 35.7507 14.8775 34.9051 16.4561C31.6939 22.4544 28.6428 28.5408 25.5872 34.6204C24.365 37.0513 22.7707 38.9636 19.9812 39.6175C17.061 40.3008 14.3729 39.3762 12.8621 37.1009C11.2768 34.7151 11.3219 31.9842 13.0966 29.5601C13.7258 28.6986 14.4767 27.8868 15.3065 27.2193C20.757 22.8333 26.2187 18.4585 31.7435 14.1627C32.8575 13.2967 34.1857 12.6225 35.5184 12.1422C39.8346 10.5862 43.923 12.1038 44.8453 16.2599C47.2694 27.1878 49.2381 38.2149 51.0624 47.544C51.1098 55.0893 47.9843 58.2329 42.7729 57.6037H42.7706Z" fill="#F73E9F"/>
<path d="M108.523 28.1388C108.523 29.891 108.154 31.4898 107.412 32.9398C106.67 34.3898 105.65 35.6188 104.354 36.629C103.057 37.6393 101.582 38.406 99.9317 38.9269C98.281 39.4501 96.5965 39.7094 94.8782 39.7094C93.9694 39.7094 93.1598 39.6417 92.4517 39.5064C92.4517 39.5064 91.313 39.4027 90.0885 39.0013C90.1178 44.1518 90.2283 49.0971 90.429 53.8079H82.0898C82.3244 48.283 82.4439 42.3703 82.4439 36.0698C82.4439 28.6575 82.3244 23.0153 82.0898 19.1412C83.842 18.9044 85.8806 18.6947 88.2055 18.5098C90.5305 18.3249 92.4675 18.2324 94.0167 18.2324C96.0711 18.2324 97.9766 18.4173 99.7265 18.7872C101.479 19.1592 103.012 19.7388 104.325 20.5303C105.639 21.3218 106.665 22.3591 107.407 23.6377C108.149 24.9186 108.519 26.4182 108.519 28.1365L108.523 28.1388ZM100.135 28.998C100.135 27.6495 99.9836 26.3708 99.6791 25.1576C99.377 23.9444 98.9305 22.8823 98.3396 21.9735C97.7511 21.0625 97.0002 20.3567 96.0914 19.8515C95.1826 19.3464 94.1543 19.0938 93.0087 19.0938C91.9647 19.0938 91.0874 19.1615 90.3816 19.2968C90.1787 24.8555 90.0772 30.5336 90.0772 36.3268C90.0772 36.8635 90.084 37.3844 90.084 37.9166C90.8349 38.2211 91.7076 38.512 92.5532 38.6518C92.7111 38.6766 92.8464 38.7037 92.9727 38.7285C93.3177 38.7758 93.7304 38.8029 94.2197 38.8029C95.4329 38.8029 96.477 38.3902 97.3519 37.5648C98.2292 36.7395 98.9102 35.5691 99.3995 34.0515C99.8889 32.5361 100.132 30.8516 100.132 28.998H100.135Z" fill="#F73E9F"/>
<path d="M115.101 17.3213C116.246 17.3213 117.232 17.7092 118.057 18.4826C118.883 19.2584 119.295 20.1491 119.295 21.1616C119.295 22.1741 118.858 23.0649 117.981 23.8406C117.103 24.6163 116.093 25.0019 114.947 25.0019C113.802 25.0019 112.868 24.6141 112.041 23.8406C111.215 23.0649 110.803 22.1719 110.803 21.1616C110.803 20.1514 111.231 19.2584 112.09 18.4826C112.95 17.7069 113.953 17.3213 115.099 17.3213H115.101ZM111.179 34.8587C111.076 32.1098 112.972 29.6879 115.653 29.0768L118.689 28.3868V53.553H111.261V39.1501C111.261 37.7271 111.233 36.2952 111.179 34.8565V34.8587Z" fill="#F73E9F"/>
<path d="M130.846 53.5529H123.366V39.0485C123.366 37.5828 123.344 36.1846 123.296 34.8519C123.202 32.1075 125.033 29.6698 127.703 29.0317L130.853 28.3867L130.844 33.2892C132.596 31.4355 134.195 30.1727 135.645 29.4985C137.093 28.8242 138.441 28.4882 139.688 28.4882C140.935 28.4882 142.198 28.8152 143.378 29.4736C144.557 30.1299 145.466 31.1334 146.106 32.4819C146.747 33.8281 147.067 35.3119 147.067 36.9288V53.5552H139.587V36.9784C139.587 35.4292 139.199 34.225 138.426 33.3658C137.65 32.5067 136.691 32.076 135.546 32.076C134.03 32.076 132.463 32.7998 130.846 34.2498V53.5529Z" fill="#F73E9F"/>
<path d="M151.528 28.1864C151.528 26.4094 151.499 24.6054 151.438 22.7698C151.348 20.0344 153.21 17.6147 155.876 16.9923L159.006 16.2617V53.5555H151.526V28.1864H151.528ZM166.172 38.8527C167.987 38.2461 171.375 34.8387 175.122 29.0027H167.349C167.043 31.7967 166.001 34.4035 164.21 36.8276C163.507 37.9709 162.054 39.4548 159.869 41.2768L167.572 53.5555H176.593C172.662 47.9698 166.914 39.6262 166.172 38.8527Z" fill="#F73E9F"/>
<path d="M198.98 18.8264C200.328 18.8264 201.336 18.8399 202.004 18.8692L208.14 35.667C209.069 38.161 210.077 40.9167 211.164 43.9339C212.253 46.9512 213.058 49.1701 213.579 50.5908C214.102 52.0115 214.377 52.7511 214.406 52.8098C214.436 52.8977 214.42 52.9631 214.364 53.0059C214.305 53.0488 214.118 53.0849 213.797 53.1142C213.477 53.1435 213.058 53.157 212.535 53.157H205.79L204.66 49.8917C204.252 48.7033 203.643 46.8903 202.831 44.4526L202.092 42.3216H197.088C193.75 42.3216 192.041 42.3937 191.953 42.5381C191.894 42.6553 191.685 43.961 191.322 46.4551C190.958 48.9491 190.733 50.69 190.647 51.6777L190.474 53.157H187.95C186.297 53.157 185.47 53.0691 185.47 52.8955L185.513 52.8526V52.7218C185.542 52.5775 185.731 51.7499 186.079 50.2413C186.717 47.427 187.777 43.4536 189.256 38.3166C190.735 33.1819 191.924 29.2942 192.823 26.6558C193.867 23.6972 194.738 21.4354 195.435 19.8682L195.913 18.7812C196.61 18.8106 197.631 18.8241 198.98 18.8241V18.8264ZM196.283 25.4855C196.208 25.6005 196.129 25.7764 196.044 26.0086C195.956 26.2409 195.87 26.5025 195.782 26.7911C194.359 31.6372 193.459 34.916 193.083 36.6276C192.968 37.1778 192.828 37.8025 192.67 38.4993C192.51 39.1961 192.388 39.7328 192.3 40.1094C192.212 40.486 192.156 40.7182 192.127 40.8062L192.039 41.2414L196.738 41.1106C199.87 41.052 201.467 40.9956 201.523 40.937C201.58 40.8784 200.768 38.2963 199.086 33.1909C197.46 28.1149 196.576 25.5035 196.431 25.3569C196.402 25.3299 196.353 25.3705 196.28 25.4877L196.283 25.4855Z" fill="#F73E9F"/>
<path d="M239.947 28.3867C237.863 32.1323 235.563 37.1453 233.905 40.6925C232.167 44.4133 230.352 49.3856 228.466 54.3151H224.202L214.429 28.3867H222.962L229.634 48.3506C230.241 46.7653 230.875 44.5734 231.526 41.7794C232.14 39.1658 233.098 33.7898 233.52 28.3867H239.944H239.947Z" fill="#F73E9F"/>
<path d="M244.341 32.2026C245.588 31.0075 247.104 30.0897 248.89 29.447C250.676 28.8065 252.631 28.4863 254.753 28.4863C256.742 28.4863 258.526 28.7637 260.109 29.3207C261.692 29.8754 263.013 30.676 264.075 31.7201C265.137 32.7641 265.938 34.027 266.477 35.5108C267.016 36.9923 267.286 38.6272 267.286 40.4132C267.286 42.3683 266.975 44.1791 266.351 45.8456C265.728 47.5121 264.808 48.9711 263.595 50.2159C262.384 51.4629 260.866 52.4236 259.047 53.0956C257.227 53.7698 255.188 54.1058 252.931 54.1058C250.877 54.1058 249.057 53.8194 247.474 53.2466C245.891 52.6739 244.576 51.8665 243.532 50.8225C242.488 49.7784 241.712 48.5223 241.207 47.0566C240.702 45.5908 240.449 43.9649 240.449 42.1789C240.449 40.1223 240.787 38.2461 241.459 36.5436C242.134 34.8433 243.092 33.3933 244.339 32.1981L244.341 32.2026ZM251.188 51.6072C252.047 52.6693 253.017 53.1993 254.094 53.1993C255.172 53.1993 256.074 52.719 256.798 51.7583C257.524 50.7977 258.079 49.4852 258.467 47.8165C258.855 46.1478 259.049 44.355 259.049 42.4337C259.049 39.5698 258.812 37.1705 258.341 35.2334C257.869 33.2963 257.245 31.8396 256.471 30.8631C255.696 29.8867 254.753 29.3974 253.641 29.3974C252.529 29.3974 251.652 29.8777 250.913 30.8383C250.171 31.799 249.616 33.1204 249.246 34.8049C248.876 36.4895 248.689 38.2912 248.689 40.2125C248.689 42.6051 248.892 44.8376 249.296 46.9077C249.699 48.9801 250.331 50.5473 251.19 51.6072H251.188Z" fill="#F73E9F"/>
<path d="M273.826 51.1043C272.715 50.1099 271.837 48.8561 271.197 47.3384C270.557 45.8231 270.236 44.1205 270.236 42.2353C270.236 40.3501 270.575 38.5122 271.247 36.8277C271.921 35.1432 272.881 33.6774 274.126 32.4304C275.373 31.1833 276.848 30.2159 278.548 29.5237C280.249 28.8314 282.078 28.4863 284.03 28.4863C285.108 28.4863 286.423 28.5878 287.972 28.7908C289.521 28.9937 290.87 29.2463 292.015 29.5485L292.067 37.5832L291.409 37.7342C291.443 36.9585 288.946 29.3951 283.171 29.3951C282.328 29.3951 281.545 29.792 280.821 30.5835C280.098 31.375 279.507 32.5364 279.051 34.0698C278.596 35.6032 278.37 37.3464 278.37 39.2992C278.37 40.7131 278.512 42.0955 278.799 43.444C279.085 44.7925 279.556 45.9787 280.213 47.007C280.869 48.0353 281.694 48.8516 282.689 49.4582C283.683 50.0648 284.835 50.3669 286.15 50.3669C287.16 50.3669 288.164 50.1978 289.156 49.8618C290.151 49.5258 290.985 49.0207 291.657 48.3464L292.061 48.9034C290.678 50.6218 289.129 51.9184 287.411 52.7956C285.692 53.6706 283.857 54.1081 281.902 54.1081C280.42 54.1081 278.979 53.8555 277.581 53.3504C276.183 52.8453 274.929 52.0943 273.817 51.1021L273.826 51.1043Z" fill="#F73E9F"/>
<path d="M319.796 50.8248C319.155 51.7336 318.314 52.5093 317.268 53.1497C316.224 53.7902 315.094 54.1104 313.883 54.1104C312.568 54.1104 311.524 53.7158 310.751 52.9242C309.975 52.1327 309.504 51.0458 309.337 49.6657C307.821 51.2826 306.414 52.4281 305.118 53.1001C303.821 53.7744 302.565 54.1104 301.352 54.1104C300.544 54.1104 299.658 53.9164 298.7 53.5308C297.739 53.143 296.907 52.462 296.199 51.4833C295.491 50.5068 295.137 49.3951 295.137 48.1481C295.137 46.901 295.54 45.7059 296.35 44.6618C297.159 43.6177 298.573 42.6503 300.594 41.755C302.614 40.862 305.53 40.0953 309.337 39.4572V34.5547C309.337 33.0393 309.016 31.799 308.376 30.8407C307.736 29.88 306.962 29.3997 306.051 29.3997C300.533 29.3997 297.304 36.3226 296.803 37.9305H296.027L296.043 31.0684C297.728 30.2611 299.581 29.6274 301.602 29.1742C303.625 28.7187 305.544 28.4932 307.364 28.4932C309.082 28.4932 310.674 28.7299 312.14 29.2012C313.605 29.6726 314.733 30.5069 315.524 31.7021C316.316 32.8972 316.713 34.354 316.713 36.0723V48.1503C316.713 49.801 317.236 50.6263 318.28 50.6263C318.449 50.6263 318.652 50.5835 318.887 50.5001C319.124 50.4166 319.308 50.34 319.441 50.2723L319.796 50.8293V50.8248ZM309.334 40.3141C307.077 40.6501 305.384 41.2747 304.256 42.1835C303.129 43.0923 302.563 44.407 302.563 46.1253C302.563 47.5076 302.867 48.5923 303.471 49.3861C304.078 50.1776 304.82 50.5745 305.695 50.5745C306.234 50.5745 306.849 50.3963 307.539 50.0446C308.229 49.6905 308.829 49.2282 309.334 48.6554V40.3163V40.3141Z" fill="#F73E9F"/>
<path d="M339.76 22.7498C339.656 20.0144 341.544 17.6015 344.209 16.9836L347.328 16.2598V42.8918C347.328 46.1593 347.445 49.3096 347.682 52.3426L339.848 54.1624V49.5148C336.916 52.5794 334.052 54.1128 331.256 54.1128C330.077 54.1128 328.915 53.8512 327.77 53.3303C326.624 52.8071 325.596 52.0585 324.687 51.082C323.778 50.1056 323.061 48.8924 322.54 47.4447C322.017 45.9947 321.758 44.4117 321.758 42.6933C321.758 40.7044 322.112 38.8439 322.82 37.1098C323.528 35.3734 324.529 33.8671 325.826 32.5862C327.123 31.3076 328.672 30.3199 330.476 29.6299C332.278 28.9398 334.206 28.5926 336.262 28.5926C337.408 28.5926 338.605 28.676 339.85 28.8451V27.4312C339.85 25.8685 339.821 24.308 339.762 22.7543L339.76 22.7498ZM339.848 48.5023V31.9774C339.376 31.2355 338.77 30.6289 338.028 30.1576C337.286 29.6863 336.528 29.4495 335.753 29.4495C334.607 29.4495 333.597 29.9636 332.722 30.9919C331.847 32.0202 331.155 33.4341 330.649 35.2359C330.144 37.0399 329.892 38.9003 329.892 40.8194C329.892 43.8524 330.397 46.236 331.407 47.9701C332.417 49.7042 333.8 50.5724 335.552 50.5724C336.361 50.5724 337.153 50.3695 337.926 49.9658C338.702 49.5622 339.34 49.0728 339.848 48.5023Z" fill="#F73E9F"/>
<path d="M355.055 32.2026C356.302 31.0075 357.818 30.0897 359.604 29.447C361.39 28.8065 363.345 28.4863 365.467 28.4863C367.456 28.4863 369.239 28.7637 370.823 29.3207C372.406 29.8754 373.727 30.676 374.789 31.7201C375.851 32.7641 376.652 34.027 377.191 35.5108C377.73 36.9923 378 38.6272 378 40.4132C378 42.3683 377.689 44.1791 377.064 45.8456C376.442 47.5121 375.522 48.9711 374.309 50.2159C373.098 51.4629 371.58 52.4236 369.76 53.0956C367.941 53.7698 365.902 54.1058 363.645 54.1058C361.59 54.1058 359.771 53.8194 358.188 53.2466C356.604 52.6739 355.29 51.8665 354.246 50.8225C353.202 49.7784 352.426 48.5223 351.921 47.0566C351.416 45.5908 351.163 43.9649 351.163 42.1789C351.163 40.1223 351.501 38.2461 352.173 36.5436C352.848 34.8433 353.806 33.3933 355.053 32.1981L355.055 32.2026ZM361.904 51.6072C362.763 52.6693 363.733 53.1993 364.811 53.1993C365.888 53.1993 366.79 52.719 367.514 51.7583C368.24 50.7977 368.795 49.4852 369.183 47.8165C369.571 46.1478 369.765 44.355 369.765 42.4337C369.765 39.5698 369.528 37.1705 369.057 35.2334C368.585 33.2963 367.961 31.8396 367.187 30.8631C366.412 29.8867 365.469 29.3974 364.357 29.3974C363.246 29.3974 362.368 29.8777 361.629 30.8383C360.887 31.799 360.332 33.1204 359.962 34.8049C359.592 36.4895 359.405 38.2912 359.405 40.2125C359.405 42.6051 359.608 44.8376 360.012 46.9077C360.415 48.9801 361.047 50.5473 361.906 51.6072H361.904Z" fill="#F73E9F"/>
</svg>
