<svg width="40" height="40" viewBox="0 0 40 40" fill="none" xmlns="http://www.w3.org/2000/svg">
<path d="M23.4552 2.88835L26.9748 9.98575C27.4548 10.9737 28.7346 11.9214 29.8146 12.1029L36.1938 13.1715C40.2734 13.8571 41.2334 16.8412 38.2936 19.785L33.3342 24.7854C32.4942 25.6322 32.0344 27.2654 32.2942 28.435L33.7142 34.625C34.834 39.5246 32.2542 41.42 27.9548 38.8592L21.9754 35.2904C20.8956 34.6452 19.1158 34.6452 18.0158 35.2904L12.0365 38.8592C7.757 41.42 5.1573 39.5044 6.27718 34.625L7.69702 28.435C7.95698 27.2654 7.49704 25.6322 6.65712 24.7854L1.69768 19.785C-1.222 16.8412 -0.282101 13.8571 3.79744 13.1715L10.1767 12.1029C11.2366 11.9214 12.5165 10.9737 12.9964 9.98575L16.516 2.88835C18.4358 -0.962785 21.5554 -0.962785 23.4552 2.88835Z" fill="#D5E882"/>
</svg>
