<svg width="18" height="20" viewBox="0 0 18 20" fill="none" xmlns="http://www.w3.org/2000/svg">
<g clip-path="url(#clip0_237_1126)">
<path d="M15.8852 19.4148H2.6852C1.86479 19.4148 1.2403 18.7946 1.33826 18.0924L1.80356 14.9912C2.17091 12.5336 4.5954 10.6846 7.46071 10.6846H11.0974C13.9627 10.6846 16.3872 12.5219 16.7546 14.9912L17.2199 18.0924C17.3301 18.7946 16.6934 19.4148 15.873 19.4148H15.8852Z" stroke="black" stroke-miterlimit="10"/>
<path d="M9.28519 8.75348C11.6454 8.75348 13.5587 6.9249 13.5587 4.66922C13.5587 2.41355 11.6454 0.584961 9.28519 0.584961C6.92502 0.584961 5.01172 2.41355 5.01172 4.66922C5.01172 6.9249 6.92502 8.75348 9.28519 8.75348Z" stroke="black" stroke-miterlimit="10" stroke-linecap="round"/>
</g>
<defs>
<clipPath id="clip0_237_1126">
<rect width="17.1429" height="20" fill="white" transform="translate(0.713867)"/>
</clipPath>
</defs>
</svg>
