<svg width="25" height="25" viewBox="0 0 25 25" fill="none" xmlns="http://www.w3.org/2000/svg">
<path d="M24.4658 12.3507C24.4779 5.72245 19.1076 0.340193 12.4717 0.328125H12.1304C10.1067 0.385447 8.12832 0.952636 6.38252 1.9784C0.670893 5.33628 -1.235 12.6826 2.12372 18.3877L2.35025 18.7678L1.41392 23.9781L6.57884 22.7713L6.97754 22.9825C8.68408 23.8725 10.5809 24.3341 12.5049 24.3281H12.8311C19.3069 24.1199 24.4537 18.8221 24.4658 12.3507ZM19.4187 17.6485C19.0955 18.4842 17.5762 19.2596 16.9117 19.2988C16.7033 19.3199 16.513 19.338 16.2653 19.338C15.6582 19.338 14.7068 19.1872 12.5623 18.2579C8.89551 16.6952 6.66644 12.8123 6.50635 12.5649C6.34627 12.3175 5.08071 10.5436 5.1381 8.73338C5.15924 7.58996 5.65459 6.50385 6.50635 5.73754C6.75705 5.4811 7.09534 5.33025 7.45477 5.3212C7.46886 5.31919 7.48195 5.31215 7.49403 5.30008C7.74171 5.3212 7.95012 5.3212 8.19779 5.3393C8.44547 5.3574 8.74751 5.39964 8.99518 6.00303C9.29723 6.73917 9.94058 8.54935 10.01 8.7364C10.1309 8.9325 10.1369 9.17989 10.0282 9.38203C9.92547 9.59322 9.79862 9.78932 9.6476 9.97034C9.45731 10.1785 9.26702 10.4259 9.07674 10.5948C8.88645 10.7638 8.67804 10.9539 8.88645 11.334C9.41804 12.2783 10.0765 13.1472 10.8437 13.9135C11.6713 14.7251 12.6439 15.3737 13.7101 15.8293C13.8309 15.8987 13.9698 15.9379 14.1088 15.9439C14.2628 15.9379 14.4048 15.8685 14.5075 15.7539C14.7461 15.5276 15.4317 14.7281 15.7156 14.3691C15.8093 14.2152 15.9724 14.1156 16.1536 14.1036C16.2925 14.1096 16.4254 14.1428 16.5523 14.1971C16.8876 14.3299 18.6424 15.2591 19.0019 15.4672C19.3613 15.6754 19.5908 15.772 19.6845 15.9228C19.7781 16.0737 19.7419 16.8128 19.4187 17.6485Z" fill="#FFCCEC"/>
</svg>
