<svg width="180" height="34" viewBox="0 0 180 34" fill="none" xmlns="http://www.w3.org/2000/svg">
<path d="M29.6406 21.2515C28.9956 16.0873 26.8961 10.071 25.415 6.47444C23.8976 2.78819 22.5745 0 18.5914 0C13.0118 0 12.0315 2.74334 4.36641 10.8206C-3.31685 18.9161 1.38173 29.6171 9.5402 32.4534C18.4248 35.5427 30.7501 30.1222 29.6416 21.2515H29.6406ZM20.7196 27.0532C18.994 26.845 18.0799 25.76 17.9421 23.9639C17.9197 23.6777 17.877 23.3936 17.8225 23.1106C17.6399 22.1613 16.5635 21.684 15.7423 22.1934C15.485 22.3525 15.234 22.5212 14.9948 22.7038C13.8821 23.5538 12.9072 24.5918 11.7603 25.3873C10.8003 26.0526 9.73028 26.6709 8.61756 26.9784C6.75415 27.4942 5.05625 26.3505 4.63658 24.548C4.1806 22.5895 5.02314 21.0379 7.07877 20.6556C8.8589 20.3235 10.7084 20.347 12.5291 20.2573C13.8447 20.1933 15.1646 20.2328 16.4802 20.1719C18.1365 20.095 18.6448 19.6284 18.8594 17.9742C19.2588 14.8999 19.6358 11.8223 19.9967 8.74365C20.0992 7.87227 20.0512 6.97634 19.0869 6.57589C18.0831 6.15836 17.3954 6.82043 16.9949 7.56793C15.4743 10.4084 14.0295 13.2906 12.5825 16.1696C12.0038 17.3207 11.2488 18.2263 9.92783 18.5359C8.54495 18.8595 7.27206 18.4217 6.55659 17.3442C5.80588 16.2144 5.82724 14.9212 6.66765 13.7733C6.96558 13.3653 7.32118 12.9809 7.71415 12.6648C10.2952 10.5878 12.8815 8.51619 15.4978 6.48192C16.0253 6.07186 16.6543 5.75257 17.2854 5.52511C19.3293 4.78829 21.2653 5.50696 21.7021 7.47503C22.85 12.6499 23.7823 17.8717 24.6462 22.2895C24.6686 25.8625 23.1885 27.3511 20.7207 27.0532H20.7196Z" fill="white"/>
<path d="M51.8563 13.1013C51.8563 13.931 51.6812 14.6881 51.3299 15.3747C50.9786 16.0614 50.4959 16.6434 49.8819 17.1218C49.2678 17.6002 48.5695 17.9632 47.7878 18.2099C47.0061 18.4577 46.2084 18.5805 45.3947 18.5805C44.9644 18.5805 44.581 18.5484 44.2457 18.4844C44.2457 18.4844 43.7064 18.4352 43.1266 18.2452C43.1405 20.6842 43.1928 23.026 43.2878 25.2567H39.3389C39.4499 22.6405 39.5065 19.8405 39.5065 16.8569C39.5065 13.3469 39.4499 10.6751 39.3389 8.8405C40.1686 8.72838 41.1339 8.62907 42.2349 8.5415C43.3359 8.45394 44.2532 8.41016 44.9868 8.41016C45.9596 8.41016 46.862 8.49772 47.6906 8.67285C48.5203 8.84904 49.2465 9.12349 49.868 9.49831C50.4905 9.87313 50.9764 10.3643 51.3278 10.9698C51.6791 11.5764 51.8542 12.2865 51.8542 13.1002L51.8563 13.1013ZM47.8839 13.5081C47.8839 12.8695 47.8123 12.2641 47.6682 11.6896C47.5251 11.115 47.3137 10.6121 47.0339 10.1817C46.7552 9.75032 46.3996 9.41608 45.9692 9.17688C45.5389 8.93768 45.0519 8.81808 44.5095 8.81808C44.015 8.81808 43.5996 8.85011 43.2654 8.91418C43.1693 11.5465 43.1212 14.2353 43.1212 16.9787C43.1212 17.2328 43.1244 17.4795 43.1244 17.7315C43.48 17.8757 43.8933 18.0134 44.2937 18.0796C44.3685 18.0914 44.4326 18.1042 44.4924 18.116C44.6558 18.1384 44.8512 18.1512 45.0829 18.1512C45.6574 18.1512 46.1518 17.9558 46.5662 17.5649C46.9816 17.1741 47.304 16.6199 47.5358 15.9012C47.7675 15.1836 47.8828 14.3859 47.8828 13.5081H47.8839Z" fill="white"/>
<path d="M54.9709 7.98047C55.5134 7.98047 55.98 8.16414 56.3709 8.53042C56.7617 8.89776 56.9571 9.31957 56.9571 9.79904C56.9571 10.2785 56.7499 10.7003 56.3346 11.0677C55.9192 11.435 55.4408 11.6176 54.8983 11.6176C54.3558 11.6176 53.9137 11.4339 53.5218 11.0677C53.131 10.7003 52.9355 10.2774 52.9355 9.79904C52.9355 9.32064 53.1384 8.89776 53.5453 8.53042C53.9522 8.16308 54.4273 7.98047 54.9698 7.98047H54.9709ZM53.1139 16.2852C53.0648 14.9835 53.9628 13.8366 55.2325 13.5472L56.6699 13.2205V25.1378H53.1523V18.3174C53.1523 17.6436 53.1395 16.9655 53.1139 16.2842V16.2852Z" fill="white"/>
<path d="M62.4274 25.1361H58.8854V18.2676C58.8854 17.5735 58.8747 16.9114 58.8522 16.2803C58.8074 14.9807 59.6745 13.8264 60.9388 13.5242L62.4307 13.2188L62.4264 15.5403C63.2561 14.6625 64.0132 14.0645 64.6999 13.7452C65.3854 13.4259 66.024 13.2668 66.6145 13.2668C67.2051 13.2668 67.8031 13.4216 68.3616 13.7335C68.92 14.0442 69.3504 14.5194 69.6537 15.158C69.9569 15.7955 70.1086 16.4982 70.1086 17.2638V25.1371H66.5665V17.2873C66.5665 16.5537 66.3828 15.9834 66.0165 15.5766C65.6492 15.1697 65.1953 14.9658 64.6529 14.9658C63.9353 14.9658 63.1931 15.3086 62.4274 15.9952V25.1361Z" fill="white"/>
<path d="M72.221 13.1234C72.221 12.2819 72.2071 11.4276 72.1782 10.5584C72.1355 9.26309 73.0176 8.11728 74.2798 7.82255L75.762 7.47656V25.1368H72.2199V13.1234H72.221ZM79.1557 18.1744C80.0153 17.8871 81.6192 16.2736 83.394 13.51H79.7131C79.5678 14.8331 79.0745 16.0675 78.2266 17.2155C77.8934 17.7569 77.2057 18.4595 76.171 19.3223L79.8188 25.1368H84.0902C82.229 22.4918 79.507 18.5407 79.1557 18.1744Z" fill="white"/>
<path d="M94.6915 8.69323C95.3301 8.69323 95.8074 8.69964 96.1235 8.71352L99.0292 16.668C99.4691 17.8491 99.9465 19.154 100.461 20.5828C100.977 22.0116 101.358 23.0624 101.605 23.7351C101.853 24.4079 101.983 24.7581 101.997 24.7859C102.011 24.8276 102.003 24.8585 101.976 24.8788C101.949 24.8991 101.86 24.9162 101.708 24.9301C101.557 24.9439 101.358 24.9503 101.11 24.9503H97.9164L97.3814 23.4041C97.1882 22.8413 96.8998 21.9828 96.5154 20.8284L96.1652 19.8193H93.7956C92.2151 19.8193 91.4057 19.8534 91.364 19.9218C91.3363 19.9773 91.237 20.5956 91.065 21.7767C90.8931 22.9577 90.7863 23.7821 90.7458 24.2498L90.6635 24.9503H89.4686C88.6859 24.9503 88.2939 24.9087 88.2939 24.8265L88.3142 24.8062V24.7443C88.3281 24.6759 88.4178 24.284 88.5823 23.5696C88.8845 22.2369 89.3864 20.3553 90.0869 17.9228C90.7874 15.4912 91.3502 13.6502 91.7762 12.4008C92.2707 10.9998 92.6829 9.92875 93.0128 9.18658L93.2392 8.67188C93.5692 8.68576 94.0529 8.69216 94.6915 8.69216V8.69323ZM93.4143 11.8466C93.3791 11.9011 93.3417 11.9844 93.3011 12.0944C93.2595 12.2044 93.2189 12.3282 93.1773 12.4649C92.5035 14.7598 92.0774 16.3124 91.899 17.1229C91.8446 17.3835 91.7784 17.6793 91.7036 18.0093C91.6278 18.3392 91.5701 18.5934 91.5285 18.7717C91.4869 18.95 91.4602 19.06 91.4463 19.1017L91.4046 19.3078L93.63 19.2458C95.1133 19.2181 95.8694 19.1914 95.8961 19.1636C95.9228 19.1358 95.5383 17.9131 94.7417 15.4955C93.9718 13.0918 93.5532 11.8552 93.4848 11.7858C93.4709 11.7729 93.4475 11.7922 93.4133 11.8477L93.4143 11.8466Z" fill="white"/>
<path d="M114.091 13.2188C113.104 14.9925 112.015 17.3663 111.23 19.0461C110.407 20.808 109.547 23.1627 108.654 25.497H106.635L102.007 13.2188H106.048L109.207 22.6725C109.495 21.9218 109.795 20.8839 110.103 19.5608C110.394 18.3231 110.848 15.7773 111.047 13.2188H114.09H114.091Z" fill="white"/>
<path d="M116.172 15.0255C116.763 14.4595 117.48 14.0249 118.326 13.7205C119.172 13.4173 120.098 13.2656 121.103 13.2656C122.044 13.2656 122.889 13.397 123.639 13.6607C124.388 13.9234 125.014 14.3025 125.517 14.7969C126.02 15.2914 126.399 15.8894 126.654 16.592C126.91 17.2936 127.038 18.0678 127.038 18.9135C127.038 19.8394 126.89 20.6969 126.595 21.486C126.3 22.2752 125.864 22.9661 125.29 23.5555C124.716 24.1461 123.998 24.601 123.136 24.9192C122.274 25.2385 121.309 25.3976 120.24 25.3976C119.267 25.3976 118.405 25.262 117.655 24.9907C116.906 24.7195 116.283 24.3372 115.789 23.8428C115.294 23.3484 114.927 22.7536 114.688 22.0595C114.449 21.3654 114.329 20.5954 114.329 19.7497C114.329 18.7758 114.489 17.8873 114.808 17.0811C115.127 16.2759 115.581 15.5893 116.171 15.0233L116.172 15.0255ZM119.414 24.2144C119.821 24.7174 120.28 24.9683 120.791 24.9683C121.301 24.9683 121.728 24.7409 122.071 24.286C122.415 23.831 122.678 23.2096 122.861 22.4193C123.045 21.6291 123.137 20.7802 123.137 19.8704C123.137 18.5142 123.025 17.378 122.802 16.4607C122.578 15.5434 122.283 14.8535 121.916 14.3912C121.549 13.9288 121.103 13.697 120.576 13.697C120.05 13.697 119.634 13.9245 119.284 14.3794C118.933 14.8343 118.67 15.4601 118.495 16.2578C118.32 17.0555 118.231 17.9087 118.231 18.8185C118.231 19.9515 118.327 21.0087 118.518 21.989C118.709 22.9704 119.008 23.7125 119.415 24.2144H119.414Z" fill="white"/>
<path d="M130.135 23.9763C129.608 23.5053 129.193 22.9116 128.889 22.193C128.586 21.4753 128.435 20.6691 128.435 19.7764C128.435 18.8836 128.595 18.0133 128.913 17.2156C129.232 16.418 129.687 15.7238 130.277 15.1333C130.867 14.5428 131.566 14.0847 132.371 13.7568C133.176 13.429 134.042 13.2656 134.967 13.2656C135.477 13.2656 136.1 13.3137 136.833 13.4098C137.567 13.5059 138.205 13.6255 138.748 13.7686L138.773 17.5734L138.461 17.6449C138.477 17.2776 137.295 13.696 134.56 13.696C134.16 13.696 133.79 13.8839 133.447 14.2587C133.104 14.6336 132.825 15.1835 132.609 15.9097C132.393 16.6358 132.286 17.4613 132.286 18.386C132.286 19.0556 132.354 19.7102 132.489 20.3488C132.625 20.9873 132.848 21.549 133.159 22.036C133.47 22.5229 133.86 22.9095 134.331 23.1967C134.802 23.484 135.348 23.6271 135.97 23.6271C136.449 23.6271 136.924 23.547 137.394 23.3879C137.865 23.2288 138.26 22.9896 138.578 22.6703L138.769 22.934C138.115 23.7478 137.381 24.3618 136.567 24.7772C135.754 25.1915 134.884 25.3987 133.959 25.3987C133.257 25.3987 132.575 25.2791 131.913 25.0399C131.251 24.8007 130.657 24.4451 130.13 23.9752L130.135 23.9763Z" fill="white"/>
<path d="M151.904 23.8446C151.6 24.2749 151.202 24.6423 150.707 24.9455C150.212 25.2488 149.677 25.4004 149.104 25.4004C148.481 25.4004 147.987 25.2136 147.62 24.8387C147.253 24.4639 147.03 23.9492 146.951 23.2957C146.233 24.0613 145.567 24.6038 144.953 24.922C144.339 25.2413 143.744 25.4004 143.17 25.4004C142.787 25.4004 142.368 25.3086 141.914 25.126C141.459 24.9423 141.065 24.6198 140.73 24.1564C140.394 23.694 140.227 23.1675 140.227 22.577C140.227 21.9865 140.418 21.4205 140.801 20.9261C141.184 20.4317 141.854 19.9736 142.811 19.5496C143.768 19.1268 145.148 18.7637 146.951 18.4615V16.1399C146.951 15.4223 146.799 14.835 146.496 14.3812C146.193 13.9263 145.826 13.6988 145.395 13.6988C142.782 13.6988 141.253 16.9771 141.016 17.7385H140.648L140.656 14.489C141.454 14.1067 142.331 13.8067 143.288 13.592C144.246 13.3763 145.155 13.2695 146.017 13.2695C146.83 13.2695 147.584 13.3817 148.278 13.6048C148.972 13.828 149.506 14.2231 149.881 14.7891C150.256 15.3551 150.444 16.0449 150.444 16.8586V22.5781C150.444 23.3598 150.692 23.7506 151.186 23.7506C151.266 23.7506 151.362 23.7303 151.473 23.6908C151.585 23.6513 151.673 23.615 151.736 23.5829L151.904 23.8467V23.8446ZM146.95 18.8673C145.881 19.0264 145.079 19.3222 144.545 19.7525C144.011 20.1829 143.743 20.8054 143.743 21.6191C143.743 22.2737 143.887 22.7874 144.173 23.1633C144.461 23.5381 144.812 23.726 145.226 23.726C145.482 23.726 145.773 23.6417 146.1 23.4751C146.427 23.3074 146.711 23.0885 146.95 22.8173V18.8683V18.8673Z" fill="white"/>
<path d="M161.357 10.5499C161.308 9.25455 162.201 8.11194 163.464 7.81934L164.941 7.47656V20.088C164.941 21.6353 164.996 23.1271 165.108 24.5634L161.398 25.4252V23.2243C160.01 24.6755 158.654 25.4017 157.33 25.4017C156.771 25.4017 156.221 25.2778 155.679 25.0311C155.136 24.7834 154.65 24.4289 154.219 23.9665C153.789 23.5041 153.449 22.9296 153.203 22.244C152.955 21.5574 152.832 20.8077 152.832 19.994C152.832 19.0522 153 18.1712 153.335 17.35C153.67 16.5278 154.144 15.8144 154.758 15.2079C155.372 14.6024 156.106 14.1347 156.96 13.8079C157.814 13.4811 158.727 13.3167 159.701 13.3167C160.243 13.3167 160.81 13.3562 161.399 13.4363V12.7667C161.399 12.0267 161.386 11.2878 161.358 10.552L161.357 10.5499ZM161.398 22.7448V14.9196C161.175 14.5682 160.888 14.281 160.537 14.0578C160.185 13.8346 159.827 13.7225 159.459 13.7225C158.917 13.7225 158.438 13.966 158.024 14.4529C157.61 14.9398 157.282 15.6094 157.043 16.4626C156.803 17.3169 156.684 18.1979 156.684 19.1066C156.684 20.5429 156.923 21.6716 157.401 22.4928C157.88 23.314 158.534 23.7251 159.364 23.7251C159.748 23.7251 160.122 23.629 160.489 23.4379C160.856 23.2467 161.158 23.015 161.398 22.7448Z" fill="white"/>
<path d="M168.6 15.0255C169.19 14.4595 169.908 14.0249 170.754 13.7205C171.6 13.4173 172.525 13.2656 173.53 13.2656C174.472 13.2656 175.317 13.397 176.066 13.6607C176.816 13.9234 177.442 14.3025 177.945 14.7969C178.448 15.2914 178.827 15.8894 179.082 16.592C179.337 17.2936 179.465 18.0678 179.465 18.9135C179.465 19.8394 179.318 20.6969 179.022 21.486C178.728 22.2752 178.292 22.9661 177.717 23.5555C177.144 24.1461 176.425 24.601 175.563 24.9192C174.702 25.2385 173.736 25.3976 172.667 25.3976C171.695 25.3976 170.833 25.262 170.083 24.9907C169.334 24.7195 168.711 24.3372 168.217 23.8428C167.722 23.3484 167.355 22.7536 167.116 22.0595C166.876 21.3654 166.757 20.5954 166.757 19.7497C166.757 18.7758 166.917 17.8873 167.235 17.0811C167.555 16.2759 168.008 15.5893 168.599 15.0233L168.6 15.0255ZM171.843 24.2144C172.25 24.7174 172.709 24.9683 173.22 24.9683C173.73 24.9683 174.157 24.7409 174.5 24.286C174.844 23.831 175.106 23.2096 175.29 22.4193C175.474 21.6291 175.566 20.7802 175.566 19.8704C175.566 18.5142 175.453 17.378 175.23 16.4607C175.007 15.5434 174.711 14.8535 174.345 14.3912C173.978 13.9288 173.531 13.697 173.005 13.697C172.478 13.697 172.063 13.9245 171.713 14.3794C171.361 14.8343 171.099 15.4601 170.924 16.2578C170.749 17.0555 170.66 17.9087 170.66 18.8185C170.66 19.9515 170.756 21.0087 170.947 21.989C171.138 22.9704 171.437 23.7125 171.844 24.2144H171.843Z" fill="white"/>
</svg>
